<svg width="194" height="44" viewBox="0 0 194 44" fill="none" xmlns="http://www.w3.org/2000/svg">
<g clip-path="url(#clip0_1_369)">
<path d="M7.50722 43.9218H7.13959C4.74228 43.9218 2.86964 43.2693 1.52284 41.965C0.507423 40.8694 0 39.6435 0 38.2866C0 37.2087 0.323898 36.2824 0.971699 35.5081C1.61892 34.7345 2.41515 34.3473 3.35981 34.3473C4.23486 34.3473 5.00462 34.6779 5.66968 35.3389C6.26455 35.9999 6.56198 36.7478 6.56198 37.5821C6.56198 38.5216 6.19494 39.3393 5.45969 40.0346C4.81247 40.5915 4.09506 40.8694 3.30746 40.8694L3.04512 40.8437C3.84998 41.6259 4.97816 42.0176 6.43081 42.0176C7.84838 42.0176 8.91558 41.583 9.63299 40.7128C10.1404 40.0866 10.3947 39.3393 10.3947 38.4695C10.3947 37.1475 9.82572 35.9387 8.68833 34.8431C8.05837 34.2347 6.73688 33.1906 4.72502 31.7124C3.51745 30.7907 2.58142 29.9473 1.91636 29.1816C0.638599 27.7206 6.30987e-06 26.1293 6.30987e-06 24.4075C6.30987e-06 21.8338 1.33012 19.964 3.98978 18.7986C5.63459 18.1376 7.45487 17.8071 9.44947 17.8071C12.0919 17.8071 14.0778 18.4767 15.408 19.8159C16.4055 20.8772 16.9043 22.086 16.9043 23.4423C16.9043 24.4687 16.6155 25.3642 16.0379 26.1293C15.3729 26.9641 14.5329 27.3815 13.5181 27.3815C12.6954 27.3815 11.9601 27.0773 11.3129 26.4684C10.6657 25.8079 10.3418 25.0337 10.3418 24.1468C10.3418 23.3468 10.6133 22.6252 11.1558 21.9814C11.8203 21.2334 12.6344 20.8595 13.5969 20.8595L13.8592 20.8858C13.0544 20.103 11.917 19.7118 10.4471 19.7118C8.83676 19.7118 7.68212 20.2768 6.98254 21.4073C6.66727 21.9642 6.50964 22.5812 6.50964 23.2599C6.50964 24.582 7.09588 25.8079 8.26836 26.9384C8.86323 27.5119 10.202 28.5732 12.284 30.1211C13.7188 31.1995 14.6641 32.0693 15.1191 32.7297C16.3089 34.1386 16.9043 35.6694 16.9043 37.3213C16.9043 40.1564 15.3032 42.1217 12.1005 43.2173C10.6133 43.6873 9.08184 43.9218 7.50722 43.9218Z" fill="black"/>
<path d="M34.5428 43.9216H31.2882C30.5703 43.9216 29.8971 43.6786 29.2672 43.1908C28.9168 42.8609 28.6545 42.539 28.4796 42.2262C28.2345 41.7562 28.112 41.2084 28.112 40.5822V30.6167C28.112 29.8516 27.9457 29.2426 27.6132 28.7903C27.3508 28.4947 27.0269 28.3466 26.642 28.3466C26.2393 28.3466 25.8809 28.4947 25.5662 28.7903C25.1462 29.1906 24.8223 29.6166 24.5945 30.0689V43.9216H18.1378V25.6597H21.4188C22.0488 25.6597 22.6609 25.8598 23.2563 26.2595C23.7287 26.6077 24.0606 26.9994 24.2534 27.434C24.4283 27.7645 24.5163 28.0075 24.5163 28.1642C25.8982 26.4945 27.5085 25.6597 29.3454 25.6597C30.2205 25.6597 31.0691 25.8684 31.8917 26.2858C32.8715 26.825 33.5975 27.5993 34.0704 28.6079C34.3851 29.2689 34.5428 30.0163 34.5428 30.8511L34.5428 43.9216Z" fill="black"/>
<path d="M42.4169 42.3823C42.907 42.3823 43.4231 42.0175 43.9656 41.2867C44.683 40.2432 45.042 39.0172 45.042 37.6082V32.8079C44.8142 33.33 44.202 33.9126 43.2045 34.5559C42.8541 34.7995 42.5486 35.0345 42.2857 35.2604C41.4987 35.9906 41.1046 37.017 41.1046 38.339V40.0081C41.1046 40.7738 41.2622 41.3999 41.5775 41.8865C41.8042 42.2176 42.0843 42.3823 42.4169 42.3823ZM40.7634 44C39.6088 44 38.5675 43.6003 37.6401 42.7997C36.4676 41.6521 35.8813 40.2523 35.8813 38.5998C35.8813 37.7478 36.1609 36.8952 36.7213 36.0426C37.8587 34.3907 39.626 33.3471 42.0233 32.9125C43.7033 32.4951 44.683 31.7472 44.9632 30.6687C45.0155 30.4778 45.042 30.1467 45.042 29.6772C45.042 28.947 44.8274 28.3821 44.3988 27.9818C43.9702 27.5815 43.3529 27.3814 42.5486 27.3814C42.0061 27.3814 41.402 27.4775 40.7375 27.6684C41.2271 27.8949 41.6206 28.286 41.9186 28.8424C42.1632 29.2255 42.2857 29.6343 42.2857 30.0689C42.2857 30.782 42.032 31.4252 41.5246 31.9993C40.8946 32.6426 40.1772 32.9646 39.3723 32.9646C38.7073 32.9646 38.1124 32.7473 37.5877 32.3121C36.9399 31.7386 36.6166 31.0078 36.6166 30.1209C36.6166 29.425 36.8346 28.7383 37.2724 28.0596C37.8851 27.2081 38.751 26.5814 39.8711 26.1817C40.7634 25.8341 42.0498 25.6597 43.7297 25.6597C46.8266 25.6597 48.9702 26.4511 50.1605 28.0338C51.0528 29.1643 51.4993 30.7122 51.4993 32.6775V43.9216H48.2706C47.4652 43.9216 46.7392 43.626 46.0919 43.0347C45.7071 42.6345 45.4355 42.2433 45.2779 41.8608C43.8431 43.2869 42.3386 44 40.7634 44Z" fill="black"/>
<path d="M62.8382 43.9216C61.2457 43.9216 59.7148 43.5562 58.2449 42.826C57.4222 42.4086 56.6697 41.878 55.9874 41.2347C54.0975 39.3563 53.1528 37.2257 53.1528 34.843C53.1528 33.3991 53.406 32.0863 53.914 30.9032C54.7884 28.8864 56.3021 27.4168 58.4549 26.4945C59.8023 25.9381 61.202 25.6597 62.6546 25.6597C64.4916 25.6597 66.0403 26.0862 67.3003 26.9382C68.3853 27.6862 68.9278 28.6691 68.9278 29.8859C68.9278 30.7208 68.643 31.4212 68.0746 31.9862C67.5057 32.5517 66.8279 32.8342 66.0403 32.8342C65.2878 32.8342 64.636 32.5563 64.0849 31.9993C63.5337 31.443 63.2581 30.7991 63.2581 30.0689C63.2581 29.5468 63.4503 29.0082 63.8358 28.4513C64.1504 28.0167 64.4743 27.7382 64.8069 27.6164C61.3769 28.0338 59.6619 29.7733 59.6619 32.8342V34.5559C59.6619 36.5041 59.8368 37.9736 60.1871 38.9646C60.9218 40.9653 62.4447 41.9649 64.7539 41.9649C66.1013 41.9649 67.3877 41.4691 68.6126 40.4782C69.4876 39.7302 70.205 38.8171 70.7654 37.7386C71.5173 37.7386 71.8935 37.7478 71.8935 37.7649C70.8609 40.3564 69.0412 42.1827 66.4339 43.2434C65.2619 43.6957 64.063 43.9216 62.8382 43.9216Z" fill="black"/>
<path d="M88.0625 43.9216H84.2039C82.9613 43.9216 81.7894 43.2783 80.6871 41.9912C80.3718 41.5909 80.1353 41.2604 79.9783 40.9997L76.7232 35.2604L76.592 35.2341V43.9216H70.1353V17.7812H73.3898C74.1418 17.7812 74.8333 18.042 75.4633 18.5635C76.2158 19.2594 76.592 20.0679 76.592 20.9897V33.8777C76.9245 33.9647 77.2657 34.0081 77.6155 34.0081C78.7529 34.0081 79.873 33.6427 80.9759 32.9125C81.5006 32.582 81.9556 32.1818 82.3405 31.7123C82.218 31.7123 81.9901 31.6517 81.6582 31.5299C80.8527 31.2165 80.2757 30.6687 79.9259 29.8859C79.7683 29.5034 79.6895 29.1031 79.6895 28.6863C79.6895 27.7817 80.0479 27.008 80.7659 26.3641C81.3602 25.8775 82.0252 25.6334 82.7605 25.6334C83.6004 25.6334 84.3437 25.9559 84.9915 26.5986C85.5513 27.2602 85.8315 28.0338 85.8315 28.9207C85.8315 29.8773 85.5599 30.8511 85.018 31.8427C84.4225 32.9039 83.6269 33.7211 82.6293 34.2952L88.0625 43.9216Z" fill="black"/>
<path d="M99.4281 42.0697C100.25 42.0697 101.169 41.8701 102.184 41.4693C102.237 41.435 102.28 41.4172 102.316 41.4172C99.9528 39.5743 97.7827 37.6867 95.806 35.7563C95.7881 35.7214 95.5868 35.5127 95.2019 35.1302C94.5547 34.4343 93.9949 33.7996 93.522 33.2255C93.4524 33.7824 93.4173 34.4869 93.4173 35.3389C93.4173 36.9039 93.4696 37.8085 93.5749 38.0521C93.5749 38.1219 93.6618 38.3741 93.8373 38.8086C94.4149 39.9911 95.4032 40.8872 96.803 41.4956C97.7304 41.8781 98.6054 42.0697 99.4281 42.0697ZM112.394 43.9218H108.273C107.067 43.9218 105.736 43.5741 104.284 42.8782C104.127 42.809 103.978 42.713 103.838 42.5912C103.435 42.8176 102.928 43.0349 102.316 43.2436C100.968 43.6959 99.5679 43.9218 98.1158 43.9218C96.2081 43.9218 94.3096 43.5307 92.4197 42.7479C91.3347 42.2612 90.3463 41.5997 89.454 40.7648C88.2809 39.496 87.6953 38.1219 87.6953 36.6432V36.2515C87.6953 33.9734 89.034 32.1299 91.7109 30.7209C90.6259 28.8951 90.0839 27.2775 90.0839 25.8685C90.0839 23.2599 91.4572 21.4164 94.2049 20.338C95.4125 19.9034 96.6545 19.6855 97.9317 19.6855C100.277 19.6855 102.07 20.3814 103.313 21.7727C104.117 22.7642 104.52 23.8598 104.52 25.06C104.52 26.0344 104.275 26.8686 103.785 27.5645C103.103 28.4343 102.245 28.8688 101.213 28.8688C100.32 28.8688 99.5415 28.5212 98.877 27.8253C98.3339 27.182 98.0629 26.5038 98.0629 25.7902C98.0629 24.8513 98.4046 24.0513 99.087 23.3903C99.7342 22.8339 100.416 22.5555 101.134 22.5555C101.397 22.5555 101.633 22.5726 101.843 22.6075C101.072 21.8773 100.058 21.5119 98.7981 21.5119C97.7304 21.5119 96.8559 21.8859 96.173 22.6338C95.6132 23.3297 95.3331 24.2166 95.3331 25.2944C95.3331 28.1123 98.8591 32.4867 105.911 38.4169C106.506 37.4952 106.9 36.4957 107.092 35.4172C106.672 35.73 106.217 35.8867 105.728 35.8867C105.045 35.8867 104.468 35.6088 103.995 35.0518C103.68 34.6516 103.523 34.1998 103.523 33.6949C103.523 32.9996 103.811 32.4169 104.389 31.9469C104.791 31.6518 105.238 31.5037 105.728 31.5037C106.427 31.5037 107.031 31.808 107.539 32.4169C108.134 33.1992 108.431 34.1387 108.431 35.2342C108.431 36.5042 108.028 37.9389 107.224 39.5388C110.216 42.0085 111.939 43.4615 112.394 43.8955V43.9218Z" fill="black"/>
<path d="M117.434 43.9477C115.702 43.9477 114.197 43.6264 112.919 42.9825C111.414 42.1477 110.662 40.8868 110.662 39.1994C110.662 38.3303 110.951 37.5823 111.528 36.9562C112.106 36.3821 112.823 36.095 113.681 36.095C114.433 36.095 115.107 36.3558 115.702 36.8779C116.349 37.504 116.673 38.2433 116.673 39.0953C116.673 39.9822 116.306 40.7479 115.571 41.3912C115.115 41.7737 114.538 41.991 113.839 42.043C114.276 42.2695 114.748 42.3827 115.256 42.3827C116.078 42.3827 116.822 42.1128 117.487 41.5736C117.766 41.278 117.942 41.0435 118.012 40.8691C118.186 40.574 118.274 40.1561 118.274 39.6168V20.9117C117.837 20.8769 117.329 20.8597 116.752 20.8597C113.672 20.8597 111.844 21.8684 111.266 23.8857V23.9378C111.861 23.4334 112.526 23.1813 113.261 23.1813C114.013 23.1813 114.695 23.4512 115.309 23.9898C115.921 24.5994 116.227 25.3204 116.227 26.1553C116.227 27.0255 115.868 27.7821 115.15 28.4248C114.573 28.8776 113.943 29.1035 113.261 29.1035C112.299 29.1035 111.441 28.6861 110.689 27.8512C109.901 26.8952 109.507 25.8688 109.507 24.7726C109.507 23.7811 109.849 22.6769 110.531 21.4595C111.319 20.1724 112.417 19.242 113.826 18.668C115.234 18.0939 117.023 17.8074 119.193 17.8074C120.733 17.8074 123.288 18.0161 126.857 18.4329C128.537 18.6073 129.867 18.6943 130.847 18.6943C132.527 18.6943 133.839 18.4592 134.784 17.9898V19.9986C133.525 21.2337 131.468 21.8507 128.616 21.8507C127.601 21.8507 126.306 21.7723 124.731 21.6162V38.1564C124.731 40.6438 123.664 42.3478 121.529 43.2696C120.409 43.7219 119.044 43.9477 117.434 43.9477Z" fill="black"/>
<path d="M130.086 43.9218H126.805V25.6598H129.955C130.952 25.6598 131.792 26.0252 132.475 26.7554C133.507 25.6947 134.767 25.1641 136.254 25.1641C137.444 25.1641 138.546 25.5472 139.561 26.3123C140.926 27.373 141.609 28.7556 141.609 30.4602C141.609 31.3471 141.394 32.1259 140.966 32.7949C140.537 33.465 139.946 33.9391 139.194 34.217C138.827 34.3565 138.45 34.4257 138.065 34.4257C137.225 34.4257 136.49 34.1038 135.86 33.4605C135.318 32.8692 135.047 32.1911 135.047 31.4254C135.047 30.5557 135.361 29.7734 135.991 29.0775C136.727 28.3296 137.593 27.9556 138.59 27.9556C137.925 27.3644 137.155 27.0688 136.28 27.0688C135.405 27.0688 134.635 27.373 133.97 27.982C133.498 28.4863 133.262 28.8425 133.262 29.0512V40.7128C133.262 41.6351 132.895 42.4351 132.159 43.1132C131.511 43.6524 130.821 43.9218 130.086 43.9218Z" fill="black"/>
<path d="M148.355 42.3823C148.844 42.3823 149.361 42.0175 149.903 41.2867C150.621 40.2432 150.98 39.0172 150.98 37.6082V32.8079C150.752 33.33 150.14 33.9126 149.142 34.5559C148.792 34.7995 148.486 35.0345 148.223 35.2604C147.436 35.9906 147.042 37.017 147.042 38.339V40.0081C147.042 40.7738 147.2 41.3999 147.514 41.8865C147.742 42.2176 148.022 42.3823 148.355 42.3823ZM146.701 44C145.546 44 144.505 43.6003 143.578 42.7997C142.405 41.6521 141.819 40.2523 141.819 38.5998C141.819 37.7478 142.099 36.8952 142.659 36.0426C143.796 34.3907 145.563 33.3471 147.961 32.9125C149.641 32.4951 150.621 31.7472 150.901 30.6687C150.953 30.4778 150.98 30.1467 150.98 29.6772C150.98 28.947 150.765 28.3821 150.336 27.9818C149.907 27.5815 149.29 27.3814 148.486 27.3814C147.943 27.3814 147.34 27.4775 146.675 27.6684C147.165 27.8949 147.558 28.286 147.856 28.8424C148.101 29.2255 148.223 29.6343 148.223 30.0689C148.223 30.782 147.97 31.4252 147.462 31.9993C146.832 32.6426 146.115 32.9646 145.31 32.9646C144.645 32.9646 144.05 32.7473 143.525 32.3121C142.877 31.7386 142.554 31.0078 142.554 30.1209C142.554 29.425 142.773 28.7383 143.21 28.0596C143.822 27.2081 144.689 26.5814 145.809 26.1817C146.701 25.8341 147.987 25.6597 149.667 25.6597C152.764 25.6597 154.908 26.4511 156.098 28.0338C156.99 29.1643 157.436 30.7122 157.436 32.6775V43.9216H154.208C153.403 43.9216 152.677 43.626 152.029 43.0347C151.644 42.6345 151.373 42.2433 151.216 41.8608C149.781 43.2869 148.276 44 146.701 44Z" fill="black"/>
<path d="M168.776 43.9216C167.183 43.9216 165.652 43.5562 164.182 42.826C163.36 42.4086 162.607 41.878 161.925 41.2347C160.035 39.3563 159.09 37.2257 159.09 34.843C159.09 33.3991 159.343 32.0863 159.851 30.9032C160.726 28.8864 162.239 27.4168 164.392 26.4945C165.74 25.9381 167.139 25.6597 168.591 25.6597C170.429 25.6597 171.978 26.0862 173.238 26.9382C174.323 27.6862 174.865 28.6691 174.865 29.8859C174.865 30.7208 174.58 31.4212 174.012 31.9862C173.443 32.5517 172.765 32.8342 171.978 32.8342C171.225 32.8342 170.573 32.5563 170.022 31.9993C169.471 31.443 169.195 30.7991 169.195 30.0689C169.195 29.5468 169.388 29.0082 169.773 28.4513C170.088 28.0167 170.412 27.7382 170.744 27.6164C167.314 28.0338 165.6 29.7733 165.6 32.8342V34.5559C165.6 36.5041 165.774 37.9736 166.124 38.9646C166.859 40.9653 168.382 41.9649 170.692 41.9649C172.039 41.9649 173.325 41.4691 174.55 40.4782C175.425 39.7302 176.142 38.8171 176.703 37.7386C177.455 37.7386 177.831 37.7478 177.831 37.7649C176.798 40.3564 174.978 42.1827 172.371 43.2434C171.199 43.6957 170 43.9216 168.776 43.9216Z" fill="black"/>
<path d="M194 43.9216H190.141C188.899 43.9216 187.727 43.2783 186.625 41.9912C186.309 41.5909 186.073 41.2604 185.916 40.9997L182.661 35.2604L182.529 35.2341V43.9216H176.073V17.7812H179.327C180.079 17.7812 180.771 18.042 181.401 18.5635C182.153 19.2594 182.529 20.0679 182.529 20.9897V33.8777C182.862 33.9647 183.203 34.0081 183.553 34.0081C184.691 34.0081 185.81 33.6427 186.913 32.9125C187.438 32.582 187.893 32.1818 188.278 31.7123C188.155 31.7123 187.928 31.6517 187.596 31.5299C186.79 31.2165 186.213 30.6687 185.863 29.8859C185.706 29.5034 185.627 29.1031 185.627 28.6863C185.627 27.7817 185.985 27.008 186.703 26.3641C187.298 25.8775 187.963 25.6334 188.698 25.6334C189.538 25.6334 190.281 25.9559 190.929 26.5986C191.489 27.2602 191.769 28.0338 191.769 28.9207C191.769 29.8773 191.497 30.8511 190.955 31.8427C190.36 32.9039 189.564 33.7211 188.567 34.2952L194 43.9216Z" fill="black"/>
<path d="M160.409 10.7874C159.366 9.63401 157.599 7.67956 155.193 5.01778C152.787 2.35657 148.384 1.02882 145.605 2.13013C137.912 5.18017 153.187 13.8774 155.183 14.7975C146.96 12.4176 143.036 7.86597 138.15 5.20876C121.391 -3.16427 104.851 -0.230882 93.7896 5.52498C90.6081 7.18552 87.6798 9.28807 84.9402 11.597C82.3415 13.9072 85.9717 17.7503 88.4628 15.3704C95.7318 8.64649 105.425 4.65525 115.345 4.26699C124.042 3.93477 130.603 6.22887 138.349 9.58312C138.584 14.8987 142.741 19.0546 148.663 20.0759C156.43 21.494 164.03 20.0175 171.194 16.9046C167.03 16.0726 162.886 13.5275 160.409 10.7874Z" fill="#3AB54A"/>
</g>
<defs>
<clipPath id="clip0_1_369">
<rect width="194" height="44" fill="white"/>
</clipPath>
</defs>
</svg>
