<svg width="1614" height="712" viewBox="0 0 1614 712" fill="none" xmlns="http://www.w3.org/2000/svg">
<g filter="url(#filter0_d_3_2)">
<rect x="8" width="1598" height="663" rx="31" fill="#F3F3F3"/>
<path d="M146.84 103.4V123.112H123.8V193H103.32V123.112H80.28V103.4H146.84ZM166.74 140.392C169.3 131.816 177.876 127.72 185.94 127.72V149.48C178.004 148.2 166.74 151.4 166.74 164.072V193H147.54V129H166.74V140.392ZM239.504 129H258.704V193H239.504V186.984C235.28 191.848 229.008 194.792 220.432 194.792C203.664 194.792 189.84 180.072 189.84 161C189.84 141.928 203.664 127.208 220.432 127.208C229.008 127.208 235.28 130.152 239.504 135.016V129ZM224.272 176.616C233.104 176.616 239.504 170.6 239.504 161C239.504 151.4 233.104 145.384 224.272 145.384C215.44 145.384 209.04 151.4 209.04 161C209.04 170.6 215.44 176.616 224.272 176.616ZM303.51 194.792C284.054 194.792 269.59 180.072 269.59 161C269.59 141.928 284.054 127.208 303.51 127.208C315.926 127.208 326.934 133.736 332.438 143.592L315.67 153.32C313.494 148.84 308.886 146.152 303.254 146.152C294.934 146.152 288.79 152.168 288.79 161C288.79 169.832 294.934 175.848 303.254 175.848C308.886 175.848 313.622 173.16 315.67 168.68L332.438 178.28C326.934 188.264 316.054 194.792 303.51 194.792ZM401.605 193H379.845L359.365 164.712V193H340.165V103.4H359.365V157.032L378.565 129H400.965L377.669 161L401.605 193ZM514.265 103.4L484.185 158.568V193H463.705V158.568L433.625 103.4H456.921L473.945 137.96L490.969 103.4H514.265ZM539.26 194.792C520.444 194.792 505.34 180.072 505.34 161C505.34 141.928 520.444 127.208 539.26 127.208C558.076 127.208 573.18 141.928 573.18 161C573.18 180.072 558.076 194.792 539.26 194.792ZM539.26 176.104C547.58 176.104 553.98 170.088 553.98 161C553.98 151.912 547.58 145.896 539.26 145.896C530.94 145.896 524.54 151.912 524.54 161C524.54 170.088 530.94 176.104 539.26 176.104ZM625.384 129H644.584V193H625.384V186.984C621.928 191.72 615.528 194.792 607.08 194.792C594.152 194.792 583.144 185.576 583.144 168.296V129H602.344V165.48C602.344 173.416 607.336 177.128 613.48 177.128C620.52 177.128 625.384 173.032 625.384 163.944V129ZM677.865 140.392C680.425 131.816 689.001 127.72 697.065 127.72V149.48C689.129 148.2 677.865 151.4 677.865 164.072V193H658.665V129H677.865V140.392ZM107.16 288.288H139.16V308H86.68V218.4H107.16V288.288ZM157.14 238.368C150.868 238.368 145.62 233.12 145.62 226.848C145.62 220.576 150.868 215.328 157.14 215.328C163.412 215.328 168.66 220.576 168.66 226.848C168.66 233.12 163.412 238.368 157.14 238.368ZM147.54 308V244H166.74V308H147.54ZM215.99 235.04C208.822 234.4 204.086 236.576 204.086 244H215.99V262.432H204.086V308H184.886V262.432H176.31V244H184.886C184.886 226.08 194.742 215.328 215.99 216.608V235.04ZM238.317 283.68C240.749 290.336 246.637 292.64 253.677 292.64C258.925 292.64 263.405 290.592 265.965 287.776L281.325 296.608C275.053 305.312 265.581 309.792 253.421 309.792C231.533 309.792 217.965 295.072 217.965 276C217.965 256.928 231.789 242.208 252.013 242.208C270.701 242.208 284.525 256.672 284.525 276C284.525 278.688 284.269 281.248 283.757 283.68H238.317ZM237.933 269.344H265.453C263.405 261.92 257.645 259.232 251.885 259.232C244.589 259.232 239.725 262.816 237.933 269.344ZM311.091 262.688C311.091 269.984 342.579 265.12 342.579 288.8C342.579 303.52 329.779 309.792 315.955 309.792C303.155 309.792 293.427 304.928 288.435 294.56L305.075 285.088C306.739 289.952 310.323 292.64 315.955 292.64C320.563 292.64 322.867 291.232 322.867 288.672C322.867 281.632 291.379 285.344 291.379 263.2C291.379 249.248 303.155 242.208 316.467 242.208C326.835 242.208 336.051 246.816 341.427 255.904L325.043 264.736C323.251 261.408 320.691 259.104 316.467 259.104C313.139 259.104 311.091 260.384 311.091 262.688ZM387.794 262.432H374.61V285.088C374.61 290.592 379.346 291.104 387.794 290.592V308C362.706 310.56 355.41 303.008 355.41 285.088V262.432H345.17V244H355.41V231.84L374.61 226.08V244H387.794V262.432ZM440.235 244H460.715L438.827 306.08C431.659 326.432 420.267 334.496 402.347 333.6V315.68C411.307 315.68 415.531 312.864 418.347 305.056L392.875 244H413.995L428.203 283.168L440.235 244ZM467.79 308V214.56H486.99V308H467.79ZM518.192 283.68C520.624 290.336 526.512 292.64 533.552 292.64C538.8 292.64 543.28 290.592 545.84 287.776L561.2 296.608C554.928 305.312 545.456 309.792 533.296 309.792C511.408 309.792 497.84 295.072 497.84 276C497.84 256.928 511.664 242.208 531.888 242.208C550.576 242.208 564.4 256.672 564.4 276C564.4 278.688 564.144 281.248 563.632 283.68H518.192ZM517.808 269.344H545.328C543.28 261.92 537.52 259.232 531.76 259.232C524.464 259.232 519.6 262.816 517.808 269.344Z" fill="#39B54A"/>
<path d="M83.72 364L79.66 350H80.78L84.4 362.58L88.3 350H89.56L93.48 362.58L97.08 350H98.2L94.14 364H92.86L88.94 351.38L85 364H83.72ZM103.712 353.78C106.752 353.78 108.652 356.3 108.652 359.04C108.652 359.2 108.632 359.36 108.632 359.52H99.5719C99.8119 361.78 101.532 363.26 103.812 363.26C105.452 363.26 106.692 362.5 107.272 361.44L108.152 361.96C107.332 363.32 105.772 364.22 103.792 364.22C100.712 364.22 98.5319 362.02 98.5319 359C98.5319 356.06 100.652 353.78 103.712 353.78ZM103.712 354.74C101.432 354.74 99.7719 356.32 99.5719 358.54H107.612C107.392 356.1 105.672 354.74 103.712 354.74ZM121.621 353.78C124.481 353.78 126.801 356.04 126.801 359C126.801 361.96 124.481 364.22 121.621 364.22C119.681 364.22 118.141 363.22 117.321 361.68V368H116.321V354H117.321V356.32C118.141 354.78 119.681 353.78 121.621 353.78ZM121.561 363.26C123.941 363.26 125.801 361.38 125.801 359C125.801 356.62 123.941 354.74 121.561 354.74C119.181 354.74 117.321 356.62 117.321 359C117.321 361.38 119.181 363.26 121.561 363.26ZM130.212 355.96C130.892 354.38 132.192 353.86 133.552 353.86V354.82C131.832 354.82 130.212 355.88 130.212 358.44V364H129.212V354H130.212V355.96ZM139.554 364.22C136.634 364.22 134.294 361.96 134.294 359C134.294 356.04 136.634 353.78 139.554 353.78C142.454 353.78 144.794 356.04 144.794 359C144.794 361.96 142.454 364.22 139.554 364.22ZM139.554 363.26C141.934 363.26 143.774 361.38 143.774 359C143.774 356.62 141.934 354.74 139.554 354.74C137.174 354.74 135.314 356.62 135.314 359C135.314 361.38 137.174 363.26 139.554 363.26ZM154.15 354H155.21L150.99 364H149.77L145.53 354H146.61L150.37 362.96L154.15 354ZM157.524 351.58C157.084 351.58 156.724 351.22 156.724 350.78C156.724 350.36 157.084 350 157.524 350C157.964 350 158.324 350.36 158.324 350.78C158.324 351.22 157.964 351.58 157.524 351.58ZM157.024 364V354H158.024V364H157.024ZM169.926 350H170.926V364H169.926V361.68C169.106 363.22 167.566 364.22 165.626 364.22C162.766 364.22 160.446 361.96 160.446 359C160.446 356.04 162.766 353.78 165.626 353.78C167.566 353.78 169.106 354.78 169.926 356.32V350ZM165.686 363.26C168.066 363.26 169.926 361.38 169.926 359C169.926 356.62 168.066 354.74 165.686 354.74C163.306 354.74 161.446 356.62 161.446 359C161.446 361.38 163.306 363.26 165.686 363.26ZM178.497 353.78C181.537 353.78 183.437 356.3 183.437 359.04C183.437 359.2 183.417 359.36 183.417 359.52H174.357C174.597 361.78 176.317 363.26 178.597 363.26C180.237 363.26 181.477 362.5 182.057 361.44L182.937 361.96C182.117 363.32 180.557 364.22 178.577 364.22C175.497 364.22 173.317 362.02 173.317 359C173.317 356.06 175.437 353.78 178.497 353.78ZM178.497 354.74C176.217 354.74 174.557 356.32 174.357 358.54H182.397C182.177 356.1 180.457 354.74 178.497 354.74ZM198.446 354H199.506L195.286 364H194.066L189.826 354H190.906L194.666 362.96L198.446 354ZM209.731 354H210.751V364H209.731V361.74C208.891 363.24 207.351 364.22 205.431 364.22C202.591 364.22 200.251 361.96 200.251 359C200.251 356.04 202.591 353.78 205.431 353.78C207.351 353.78 208.891 354.76 209.731 356.26V354ZM205.511 363.26C207.891 363.26 209.731 361.38 209.731 359C209.731 356.62 207.891 354.74 205.511 354.74C203.131 354.74 201.271 356.62 201.271 359C201.271 361.38 203.131 363.26 205.511 363.26ZM214.821 355.96C215.501 354.38 216.801 353.86 218.161 353.86V354.82C216.441 354.82 214.821 355.88 214.821 358.44V364H213.821V354H214.821V355.96ZM220.688 351.58C220.248 351.58 219.888 351.22 219.888 350.78C219.888 350.36 220.248 350 220.688 350C221.128 350 221.488 350.36 221.488 350.78C221.488 351.22 221.128 351.58 220.688 351.58ZM220.188 364V354H221.188V364H220.188ZM228.85 364.22C225.93 364.22 223.59 361.96 223.59 359C223.59 356.04 225.93 353.78 228.85 353.78C231.75 353.78 234.09 356.04 234.09 359C234.09 361.96 231.75 364.22 228.85 364.22ZM228.85 363.26C231.23 363.26 233.07 361.38 233.07 359C233.07 356.62 231.23 354.74 228.85 354.74C226.47 354.74 224.61 356.62 224.61 359C224.61 361.38 226.47 363.26 228.85 363.26ZM243.697 354H244.697V364H243.697V362.1C242.937 363.58 241.657 364.22 240.117 364.22C237.737 364.22 236.237 362.64 236.237 360.22V354H237.257V360.22C237.257 362.06 238.317 363.26 240.197 363.26C242.157 363.26 243.697 361.98 243.697 359.28V354ZM248.466 356.62C248.466 359.3 254.526 357.72 254.526 361.38C254.526 363.02 253.086 364.22 250.946 364.22C248.946 364.22 247.626 363.28 247.146 362L248.006 361.5C248.366 362.58 249.446 363.26 250.946 363.26C252.346 363.26 253.526 362.64 253.526 361.38C253.526 358.66 247.466 360.22 247.466 356.62C247.466 355.04 248.826 353.78 250.866 353.78C252.486 353.78 253.726 354.56 254.266 355.78L253.426 356.26C253.006 355.22 251.966 354.74 250.866 354.74C249.566 354.74 248.466 355.42 248.466 356.62ZM269.938 364H268.578L263.278 359.08V364H262.278V350H263.278V358.54L268.338 354H269.738L264.358 358.8L269.938 364ZM272.446 351.58C272.006 351.58 271.646 351.22 271.646 350.78C271.646 350.36 272.006 350 272.446 350C272.886 350 273.246 350.36 273.246 350.78C273.246 351.22 272.886 351.58 272.446 351.58ZM271.946 364V354H272.946V364H271.946ZM280.608 353.78C282.988 353.78 284.488 355.36 284.488 357.78V364H283.468V357.78C283.468 355.94 282.408 354.74 280.528 354.74C278.568 354.74 277.028 356.02 277.028 358.72V364H276.028V354H277.028V355.9C277.788 354.42 279.068 353.78 280.608 353.78ZM296.137 350H297.137V364H296.137V361.68C295.317 363.22 293.777 364.22 291.837 364.22C288.977 364.22 286.657 361.96 286.657 359C286.657 356.04 288.977 353.78 291.837 353.78C293.777 353.78 295.317 354.78 296.137 356.32V350ZM291.897 363.26C294.277 363.26 296.137 361.38 296.137 359C296.137 356.62 294.277 354.74 291.897 354.74C289.517 354.74 287.657 356.62 287.657 359C287.657 361.38 289.517 363.26 291.897 363.26ZM300.888 356.62C300.888 359.3 306.948 357.72 306.948 361.38C306.948 363.02 305.508 364.22 303.368 364.22C301.368 364.22 300.048 363.28 299.568 362L300.428 361.5C300.788 362.58 301.868 363.26 303.368 363.26C304.768 363.26 305.948 362.64 305.948 361.38C305.948 358.66 299.888 360.22 299.888 356.62C299.888 355.04 301.248 353.78 303.288 353.78C304.908 353.78 306.148 354.56 306.688 355.78L305.848 356.26C305.428 355.22 304.388 354.74 303.288 354.74C301.988 354.74 300.888 355.42 300.888 356.62ZM319.28 364.22C316.36 364.22 314.02 361.96 314.02 359C314.02 356.04 316.36 353.78 319.28 353.78C322.18 353.78 324.52 356.04 324.52 359C324.52 361.96 322.18 364.22 319.28 364.22ZM319.28 363.26C321.66 363.26 323.5 361.38 323.5 359C323.5 356.62 321.66 354.74 319.28 354.74C316.9 354.74 315.04 356.62 315.04 359C315.04 361.38 316.9 363.26 319.28 363.26ZM331.256 350.74C329.216 350.58 328.276 351.52 328.276 353.46V354H331.256V354.98H328.276V364H327.256V354.98H325.536V354H327.256V353.46C327.256 351 328.636 349.58 331.256 349.78V350.74ZM342.718 353.78C345.098 353.78 346.598 355.36 346.598 357.78V364H345.578V357.78C345.578 355.94 344.518 354.74 342.638 354.74C340.678 354.74 339.138 356.02 339.138 358.72V364H338.138V350H339.138V355.9C339.898 354.42 341.178 353.78 342.718 353.78ZM349.927 351.58C349.487 351.58 349.127 351.22 349.127 350.78C349.127 350.36 349.487 350 349.927 350C350.367 350 350.727 350.36 350.727 350.78C350.727 351.22 350.367 351.58 349.927 351.58ZM349.427 364V354H350.427V364H349.427ZM362.389 354H363.389V363.52C363.389 366.52 361.169 368.22 358.409 368.22C356.069 368.22 354.409 367.28 353.689 365.82L354.569 365.32C355.089 366.38 356.209 367.26 358.409 367.26C360.909 367.26 362.389 365.8 362.389 363.52V361.68C361.569 363.22 360.029 364.22 358.089 364.22C355.229 364.22 352.909 361.96 352.909 359C352.909 356.04 355.229 353.78 358.089 353.78C360.029 353.78 361.569 354.78 362.389 356.32V354ZM358.149 363.26C360.529 363.26 362.389 361.38 362.389 359C362.389 356.62 360.529 354.74 358.149 354.74C355.769 354.74 353.909 356.62 353.909 359C353.909 361.38 355.769 363.26 358.149 363.26ZM371.058 353.78C373.438 353.78 374.938 355.36 374.938 357.78V364H373.918V357.78C373.918 355.94 372.858 354.74 370.978 354.74C369.018 354.74 367.478 356.02 367.478 358.72V364H366.478V350H367.478V355.9C368.238 354.42 369.518 353.78 371.058 353.78ZM377.967 358.3V357.34H385.167V358.3H377.967ZM392.931 353.78C395.971 353.78 397.871 356.3 397.871 359.04C397.871 359.2 397.851 359.36 397.851 359.52H388.791C389.031 361.78 390.751 363.26 393.031 363.26C394.671 363.26 395.911 362.5 396.491 361.44L397.371 361.96C396.551 363.32 394.991 364.22 393.011 364.22C389.931 364.22 387.751 362.02 387.751 359C387.751 356.06 389.871 353.78 392.931 353.78ZM392.931 354.74C390.651 354.74 388.991 356.32 388.791 358.54H396.831C396.611 356.1 394.891 354.74 392.931 354.74ZM404.788 353.78C407.168 353.78 408.668 355.36 408.668 357.78V364H407.648V357.78C407.648 355.94 406.588 354.74 404.708 354.74C402.748 354.74 401.208 356.02 401.208 358.72V364H400.208V354H401.208V355.9C401.968 354.42 403.248 353.78 404.788 353.78ZM420.317 350H421.317V364H420.317V361.68C419.497 363.22 417.957 364.22 416.017 364.22C413.157 364.22 410.837 361.96 410.837 359C410.837 356.04 413.157 353.78 416.017 353.78C417.957 353.78 419.497 354.78 420.317 356.32V350ZM416.077 363.26C418.457 363.26 420.317 361.38 420.317 359C420.317 356.62 418.457 354.74 416.077 354.74C413.697 354.74 411.837 356.62 411.837 359C411.837 361.38 413.697 363.26 416.077 363.26ZM434.44 350.74C432.4 350.58 431.46 351.52 431.46 353.46V354H434.44V354.98H431.46V364H430.44V354.98H428.72V354H430.44V353.46C430.44 351 431.82 349.58 434.44 349.78V350.74ZM439.905 364.22C436.985 364.22 434.645 361.96 434.645 359C434.645 356.04 436.985 353.78 439.905 353.78C442.805 353.78 445.145 356.04 445.145 359C445.145 361.96 442.805 364.22 439.905 364.22ZM439.905 363.26C442.285 363.26 444.125 361.38 444.125 359C444.125 356.62 442.285 354.74 439.905 354.74C437.525 354.74 435.665 356.62 435.665 359C435.665 361.38 437.525 363.26 439.905 363.26ZM452.132 364.22C449.212 364.22 446.872 361.96 446.872 359C446.872 356.04 449.212 353.78 452.132 353.78C455.032 353.78 457.372 356.04 457.372 359C457.372 361.96 455.032 364.22 452.132 364.22ZM452.132 363.26C454.512 363.26 456.352 361.38 456.352 359C456.352 356.62 454.512 354.74 452.132 354.74C449.752 354.74 447.892 356.62 447.892 359C447.892 361.38 449.752 363.26 452.132 363.26ZM468.598 350H469.598V364H468.598V361.68C467.778 363.22 466.238 364.22 464.298 364.22C461.438 364.22 459.118 361.96 459.118 359C459.118 356.04 461.438 353.78 464.298 353.78C466.238 353.78 467.778 354.78 468.598 356.32V350ZM464.358 363.26C466.738 363.26 468.598 361.38 468.598 359C468.598 356.62 466.738 354.74 464.358 354.74C461.978 354.74 460.118 356.62 460.118 359C460.118 361.38 461.978 363.26 464.358 363.26ZM486.801 354H487.821V364H486.801V361.74C485.961 363.24 484.421 364.22 482.501 364.22C479.661 364.22 477.321 361.96 477.321 359C477.321 356.04 479.661 353.78 482.501 353.78C484.421 353.78 485.961 354.76 486.801 356.26V354ZM482.581 363.26C484.961 363.26 486.801 361.38 486.801 359C486.801 356.62 484.961 354.74 482.581 354.74C480.201 354.74 478.341 356.62 478.341 359C478.341 361.38 480.201 363.26 482.581 363.26ZM495.472 353.78C497.852 353.78 499.352 355.36 499.352 357.78V364H498.332V357.78C498.332 355.94 497.272 354.74 495.392 354.74C493.432 354.74 491.892 356.02 491.892 358.72V364H490.892V354H491.892V355.9C492.652 354.42 493.932 353.78 495.472 353.78ZM511.001 350H512.001V364H511.001V361.68C510.181 363.22 508.641 364.22 506.701 364.22C503.841 364.22 501.521 361.96 501.521 359C501.521 356.04 503.841 353.78 506.701 353.78C508.641 353.78 510.181 354.78 511.001 356.32V350ZM506.761 363.26C509.141 363.26 511.001 361.38 511.001 359C511.001 356.62 509.141 354.74 506.761 354.74C504.381 354.74 502.521 356.62 502.521 359C502.521 361.38 504.381 363.26 506.761 363.26ZM525.703 353.78C528.563 353.78 530.883 356.04 530.883 359C530.883 361.96 528.563 364.22 525.703 364.22C523.763 364.22 522.223 363.22 521.403 361.68V364H520.403V350H521.403V356.32C522.223 354.78 523.763 353.78 525.703 353.78ZM525.643 363.26C528.023 363.26 529.883 361.38 529.883 359C529.883 356.62 528.023 354.74 525.643 354.74C523.263 354.74 521.403 356.62 521.403 359C521.403 361.38 523.263 363.26 525.643 363.26ZM537.794 353.78C540.834 353.78 542.734 356.3 542.734 359.04C542.734 359.2 542.714 359.36 542.714 359.52H533.654C533.894 361.78 535.614 363.26 537.894 363.26C539.534 363.26 540.774 362.5 541.354 361.44L542.234 361.96C541.414 363.32 539.854 364.22 537.874 364.22C534.794 364.22 532.614 362.02 532.614 359C532.614 356.06 534.734 353.78 537.794 353.78ZM537.794 354.74C535.514 354.74 533.854 356.32 533.654 358.54H541.694C541.474 356.1 539.754 354.74 537.794 354.74ZM552.021 354H553.081L548.861 364H547.641L543.401 354H544.481L548.241 362.96L552.021 354ZM559.005 353.78C562.045 353.78 563.945 356.3 563.945 359.04C563.945 359.2 563.925 359.36 563.925 359.52H554.865C555.105 361.78 556.825 363.26 559.105 363.26C560.745 363.26 561.985 362.5 562.565 361.44L563.445 361.96C562.625 363.32 561.065 364.22 559.085 364.22C556.005 364.22 553.825 362.02 553.825 359C553.825 356.06 555.945 353.78 559.005 353.78ZM559.005 354.74C556.725 354.74 555.065 356.32 554.865 358.54H562.905C562.685 356.1 560.965 354.74 559.005 354.74ZM567.282 355.96C567.962 354.38 569.262 353.86 570.622 353.86V354.82C568.902 354.82 567.282 355.88 567.282 358.44V364H566.282V354H567.282V355.96ZM580.844 354H581.864V364H580.844V361.74C580.004 363.24 578.464 364.22 576.544 364.22C573.704 364.22 571.364 361.96 571.364 359C571.364 356.04 573.704 353.78 576.544 353.78C578.464 353.78 580.004 354.76 580.844 356.26V354ZM576.624 363.26C579.004 363.26 580.844 361.38 580.844 359C580.844 356.62 579.004 354.74 576.624 354.74C574.244 354.74 572.384 356.62 572.384 359C572.384 361.38 574.244 363.26 576.624 363.26ZM593.815 354H594.815V363.52C594.815 366.52 592.595 368.22 589.835 368.22C587.495 368.22 585.835 367.28 585.115 365.82L585.995 365.32C586.515 366.38 587.635 367.26 589.835 367.26C592.335 367.26 593.815 365.8 593.815 363.52V361.68C592.995 363.22 591.455 364.22 589.515 364.22C586.655 364.22 584.335 361.96 584.335 359C584.335 356.04 586.655 353.78 589.515 353.78C591.455 353.78 592.995 354.78 593.815 356.32V354ZM589.575 363.26C591.955 363.26 593.815 361.38 593.815 359C593.815 356.62 591.955 354.74 589.575 354.74C587.195 354.74 585.335 356.62 585.335 359C585.335 361.38 587.195 363.26 589.575 363.26ZM602.403 353.78C605.443 353.78 607.343 356.3 607.343 359.04C607.343 359.2 607.323 359.36 607.323 359.52H598.263C598.503 361.78 600.223 363.26 602.503 363.26C604.143 363.26 605.383 362.5 605.963 361.44L606.843 361.96C606.023 363.32 604.463 364.22 602.483 364.22C599.403 364.22 597.223 362.02 597.223 359C597.223 356.06 599.343 353.78 602.403 353.78ZM602.403 354.74C600.123 354.74 598.463 356.32 598.263 358.54H606.303C606.083 356.1 604.363 354.74 602.403 354.74ZM609.97 356.62C609.97 359.3 616.03 357.72 616.03 361.38C616.03 363.02 614.59 364.22 612.45 364.22C610.45 364.22 609.13 363.28 608.65 362L609.51 361.5C609.87 362.58 610.95 363.26 612.45 363.26C613.85 363.26 615.03 362.64 615.03 361.38C615.03 358.66 608.97 360.22 608.97 356.62C608.97 355.04 610.33 353.78 612.37 353.78C613.99 353.78 615.23 354.56 615.77 355.78L614.93 356.26C614.51 355.22 613.47 354.74 612.37 354.74C611.07 354.74 609.97 355.42 609.97 356.62ZM635.922 354H636.982L633.822 364H632.722L629.942 355.48L627.162 364H626.062L622.902 354H623.962L626.622 362.7L629.422 354H630.462L633.262 362.7L635.922 354ZM639.673 351.58C639.233 351.58 638.873 351.22 638.873 350.78C638.873 350.36 639.233 350 639.673 350C640.113 350 640.473 350.36 640.473 350.78C640.473 351.22 640.113 351.58 639.673 351.58ZM639.173 364V354H640.173V364H639.173ZM648.375 354.98H645.395V361.48C645.395 363.24 646.335 363.28 648.375 363.1V364C645.755 364.4 644.375 363.76 644.375 361.48V354.98H642.175V354H644.375V351.5L645.395 351.2V354H648.375V354.98ZM655.354 353.78C657.734 353.78 659.234 355.36 659.234 357.78V364H658.214V357.78C658.214 355.94 657.154 354.74 655.274 354.74C653.314 354.74 651.774 356.02 651.774 358.72V364H650.774V350H651.774V355.9C652.534 354.42 653.814 353.78 655.354 353.78ZM671.975 364.22C669.055 364.22 666.715 361.96 666.715 359C666.715 356.04 669.055 353.78 671.975 353.78C674.875 353.78 677.215 356.04 677.215 359C677.215 361.96 674.875 364.22 671.975 364.22ZM671.975 363.26C674.355 363.26 676.195 361.38 676.195 359C676.195 356.62 674.355 354.74 671.975 354.74C669.595 354.74 667.735 356.62 667.735 359C667.735 361.38 669.595 363.26 671.975 363.26ZM684.547 354.98H681.567V361.48C681.567 363.24 682.507 363.28 684.547 363.1V364C681.927 364.4 680.547 363.76 680.547 361.48V354.98H678.347V354H680.547V351.5L681.567 351.2V354H684.547V354.98ZM691.526 353.78C693.906 353.78 695.406 355.36 695.406 357.78V364H694.386V357.78C694.386 355.94 693.326 354.74 691.446 354.74C689.486 354.74 687.946 356.02 687.946 358.72V364H686.946V350H687.946V355.9C688.706 354.42 689.986 353.78 691.526 353.78ZM702.735 353.78C705.775 353.78 707.675 356.3 707.675 359.04C707.675 359.2 707.655 359.36 707.655 359.52H698.595C698.835 361.78 700.555 363.26 702.835 363.26C704.475 363.26 705.715 362.5 706.295 361.44L707.175 361.96C706.355 363.32 704.795 364.22 702.815 364.22C699.735 364.22 697.555 362.02 697.555 359C697.555 356.06 699.675 353.78 702.735 353.78ZM702.735 354.74C700.455 354.74 698.795 356.32 698.595 358.54H706.635C706.415 356.1 704.695 354.74 702.735 354.74ZM711.013 355.96C711.693 354.38 712.993 353.86 714.353 353.86V354.82C712.633 354.82 711.013 355.88 711.013 358.44V364H710.013V354H711.013V355.96ZM85.12 383.78C87.5 383.78 89 385.36 89 387.78V394H87.98V387.78C87.98 385.94 86.92 384.74 85.04 384.74C83.08 384.74 81.54 386.02 81.54 388.72V394H80.54V380H81.54V385.9C82.3 384.42 83.58 383.78 85.12 383.78ZM96.3291 383.78C99.3691 383.78 101.269 386.3 101.269 389.04C101.269 389.2 101.249 389.36 101.249 389.52H92.1891C92.4291 391.78 94.1491 393.26 96.4291 393.26C98.0691 393.26 99.3091 392.5 99.8891 391.44L100.769 391.96C99.9491 393.32 98.3891 394.22 96.4091 394.22C93.3291 394.22 91.1491 392.02 91.1491 389C91.1491 386.06 93.2691 383.78 96.3291 383.78ZM96.3291 384.74C94.0491 384.74 92.3891 386.32 92.1891 388.54H100.229C100.009 386.1 98.2891 384.74 96.3291 384.74ZM112.406 384H113.426V394H112.406V391.74C111.566 393.24 110.026 394.22 108.106 394.22C105.266 394.22 102.926 391.96 102.926 389C102.926 386.04 105.266 383.78 108.106 383.78C110.026 383.78 111.566 384.76 112.406 386.26V384ZM108.186 393.26C110.566 393.26 112.406 391.38 112.406 389C112.406 386.62 110.566 384.74 108.186 384.74C105.806 384.74 103.946 386.62 103.946 389C103.946 391.38 105.806 393.26 108.186 393.26ZM116.497 394V379.4H117.497V394H116.497ZM125.699 384.98H122.719V391.48C122.719 393.24 123.659 393.28 125.699 393.1V394C123.079 394.4 121.699 393.76 121.699 391.48V384.98H119.499V384H121.699V381.5L122.719 381.2V384H125.699V384.98ZM132.679 383.78C135.059 383.78 136.559 385.36 136.559 387.78V394H135.539V387.78C135.539 385.94 134.479 384.74 132.599 384.74C130.639 384.74 129.099 386.02 129.099 388.72V394H128.099V380H129.099V385.9C129.859 384.42 131.139 383.78 132.679 383.78ZM146.512 384H147.592L143.272 394.92C142.512 396.84 141.032 398.14 139.312 398V397.06C140.652 397.18 141.672 396.18 142.292 394.72L142.512 394.18L137.912 384H138.992L143.032 392.9L146.512 384ZM159.3 394.22C156.38 394.22 154.04 391.96 154.04 389C154.04 386.04 156.38 383.78 159.3 383.78C162.2 383.78 164.54 386.04 164.54 389C164.54 391.96 162.2 394.22 159.3 394.22ZM159.3 393.26C161.68 393.26 163.52 391.38 163.52 389C163.52 386.62 161.68 384.74 159.3 384.74C156.92 384.74 155.06 386.62 155.06 389C155.06 391.38 156.92 393.26 159.3 393.26ZM172.246 383.78C175.106 383.78 177.426 386.04 177.426 389C177.426 391.96 175.106 394.22 172.246 394.22C170.306 394.22 168.766 393.22 167.946 391.68V398H166.946V384H167.946V386.32C168.766 384.78 170.306 383.78 172.246 383.78ZM172.186 393.26C174.566 393.26 176.426 391.38 176.426 389C176.426 386.62 174.566 384.74 172.186 384.74C169.806 384.74 167.946 386.62 167.946 389C167.946 391.38 169.806 393.26 172.186 393.26ZM184.762 384.98H181.782V391.48C181.782 393.24 182.722 393.28 184.762 393.1V394C182.142 394.4 180.762 393.76 180.762 391.48V384.98H178.562V384H180.762V381.5L181.782 381.2V384H184.762V384.98ZM187.661 381.58C187.221 381.58 186.861 381.22 186.861 380.78C186.861 380.36 187.221 380 187.661 380C188.101 380 188.461 380.36 188.461 380.78C188.461 381.22 188.101 381.58 187.661 381.58ZM187.161 394V384H188.161V394H187.161ZM195.823 394.22C192.903 394.22 190.563 391.96 190.563 389C190.563 386.04 192.903 383.78 195.823 383.78C198.723 383.78 201.063 386.04 201.063 389C201.063 391.96 198.723 394.22 195.823 394.22ZM195.823 393.26C198.203 393.26 200.043 391.38 200.043 389C200.043 386.62 198.203 384.74 195.823 384.74C193.443 384.74 191.583 386.62 191.583 389C191.583 391.38 193.443 393.26 195.823 393.26ZM208.05 383.78C210.43 383.78 211.93 385.36 211.93 387.78V394H210.91V387.78C210.91 385.94 209.85 384.74 207.97 384.74C206.01 384.74 204.47 386.02 204.47 388.72V394H203.47V384H204.47V385.9C205.23 384.42 206.51 383.78 208.05 383.78ZM215.439 386.62C215.439 389.3 221.499 387.72 221.499 391.38C221.499 393.02 220.059 394.22 217.919 394.22C215.919 394.22 214.599 393.28 214.119 392L214.979 391.5C215.339 392.58 216.419 393.26 217.919 393.26C219.319 393.26 220.499 392.64 220.499 391.38C220.499 388.66 214.439 390.22 214.439 386.62C214.439 385.04 215.799 383.78 217.839 383.78C219.459 383.78 220.699 384.56 221.239 385.78L220.399 386.26C219.979 385.22 218.939 384.74 217.839 384.74C216.539 384.74 215.439 385.42 215.439 386.62ZM225.424 392.64L224.344 396.8H223.424L224.184 392.64H225.424ZM237.989 394.22C235.369 394.22 233.509 392.9 232.869 390.92L233.789 390.38C234.269 392.06 235.689 393.2 237.989 393.2C240.329 393.2 241.509 392 241.509 390.4C241.509 388.72 240.029 388.08 237.889 387.4C235.549 386.64 233.449 385.98 233.449 383.54C233.449 381.24 235.309 379.78 237.689 379.78C239.989 379.78 241.509 381.1 242.189 382.72L241.289 383.22C240.769 381.96 239.689 380.8 237.689 380.8C235.749 380.8 234.529 381.94 234.529 383.5C234.529 385.18 235.949 385.7 237.949 386.36C240.429 387.18 242.589 387.96 242.589 390.38C242.589 392.7 240.769 394.22 237.989 394.22ZM249.847 394.22C246.927 394.22 244.587 391.96 244.587 389C244.587 386.04 246.927 383.78 249.847 383.78C252.747 383.78 255.087 386.04 255.087 389C255.087 391.96 252.747 394.22 249.847 394.22ZM249.847 393.26C252.227 393.26 254.067 391.38 254.067 389C254.067 386.62 252.227 384.74 249.847 384.74C247.467 384.74 245.607 386.62 245.607 389C245.607 391.38 247.467 393.26 249.847 393.26ZM270.145 384H271.225L266.905 394.92C266.145 396.84 264.665 398.14 262.945 398V397.06C264.285 397.18 265.305 396.18 265.925 394.72L266.145 394.18L261.545 384H262.625L266.665 392.9L270.145 384ZM277.21 394.22C274.29 394.22 271.95 391.96 271.95 389C271.95 386.04 274.29 383.78 277.21 383.78C280.11 383.78 282.45 386.04 282.45 389C282.45 391.96 280.11 394.22 277.21 394.22ZM277.21 393.26C279.59 393.26 281.43 391.38 281.43 389C281.43 386.62 279.59 384.74 277.21 384.74C274.83 384.74 272.97 386.62 272.97 389C272.97 391.38 274.83 393.26 277.21 393.26ZM292.056 384H293.056V394H292.056V392.1C291.296 393.58 290.016 394.22 288.476 394.22C286.096 394.22 284.596 392.64 284.596 390.22V384H285.616V390.22C285.616 392.06 286.676 393.26 288.556 393.26C290.516 393.26 292.056 391.98 292.056 389.28V384ZM306.058 394.22C303.038 394.22 300.798 391.96 300.798 389C300.798 386.04 303.038 383.78 306.058 383.78C308.018 383.78 309.698 384.78 310.418 386.34L309.598 386.82C309.018 385.56 307.658 384.74 306.058 384.74C303.638 384.74 301.818 386.62 301.818 389C301.818 391.38 303.638 393.26 306.058 393.26C307.678 393.26 308.998 392.42 309.658 391.18L310.497 391.68C309.698 393.22 308.018 394.22 306.058 394.22ZM321.391 384H322.411V394H321.391V391.74C320.551 393.24 319.011 394.22 317.091 394.22C314.251 394.22 311.911 391.96 311.911 389C311.911 386.04 314.251 383.78 317.091 383.78C319.011 383.78 320.551 384.76 321.391 386.26V384ZM317.171 393.26C319.551 393.26 321.391 391.38 321.391 389C321.391 386.62 319.551 384.74 317.171 384.74C314.791 384.74 312.931 386.62 312.931 389C312.931 391.38 314.791 393.26 317.171 393.26ZM330.061 383.78C332.441 383.78 333.941 385.36 333.941 387.78V394H332.921V387.78C332.921 385.94 331.861 384.74 329.981 384.74C328.021 384.74 326.481 386.02 326.481 388.72V394H325.481V384H326.481V385.9C327.241 384.42 328.521 383.78 330.061 383.78ZM347.403 383.78C350.263 383.78 352.583 386.04 352.583 389C352.583 391.96 350.263 394.22 347.403 394.22C345.463 394.22 343.923 393.22 343.103 391.68V398H342.103V384H343.103V386.32C343.923 384.78 345.463 383.78 347.403 383.78ZM347.343 393.26C349.723 393.26 351.582 391.38 351.582 389C351.582 386.62 349.723 384.74 347.343 384.74C344.963 384.74 343.103 386.62 343.103 389C343.103 391.38 344.963 393.26 347.343 393.26ZM355.493 381.58C355.053 381.58 354.693 381.22 354.693 380.78C354.693 380.36 355.053 380 355.493 380C355.933 380 356.293 380.36 356.293 380.78C356.293 381.22 355.933 381.58 355.493 381.58ZM354.993 394V384H355.993V394H354.993ZM363.655 394.22C360.635 394.22 358.395 391.96 358.395 389C358.395 386.04 360.635 383.78 363.655 383.78C365.615 383.78 367.295 384.78 368.015 386.34L367.195 386.82C366.615 385.56 365.255 384.74 363.655 384.74C361.235 384.74 359.415 386.62 359.415 389C359.415 391.38 361.235 393.26 363.655 393.26C365.275 393.26 366.595 392.42 367.255 391.18L368.095 391.68C367.295 393.22 365.615 394.22 363.655 394.22ZM377.946 394H376.586L371.286 389.08V394H370.286V380H371.286V388.54L376.346 384H377.746L372.366 388.8L377.946 394ZM395.206 380L390.106 388.24V394H389.046V388.24L383.946 380H385.146L389.586 387.22L394.006 380H395.206ZM399.534 394.22C396.614 394.22 394.274 391.96 394.274 389C394.274 386.04 396.614 383.78 399.534 383.78C402.434 383.78 404.774 386.04 404.774 389C404.774 391.96 402.434 394.22 399.534 394.22ZM399.534 393.26C401.914 393.26 403.754 391.38 403.754 389C403.754 386.62 401.914 384.74 399.534 384.74C397.154 384.74 395.294 386.62 395.294 389C395.294 391.38 397.154 393.26 399.534 393.26ZM414.381 384H415.381V394H414.381V392.1C413.621 393.58 412.341 394.22 410.801 394.22C408.421 394.22 406.921 392.64 406.921 390.22V384H407.941V390.22C407.941 392.06 409.001 393.26 410.881 393.26C412.841 393.26 414.381 391.98 414.381 389.28V384ZM419.47 385.96C420.15 384.38 421.45 383.86 422.81 383.86V384.82C421.09 384.82 419.47 385.88 419.47 388.44V394H418.47V384H419.47V385.96ZM435.469 383.78C438.329 383.78 440.649 386.04 440.649 389C440.649 391.96 438.329 394.22 435.469 394.22C433.529 394.22 431.989 393.22 431.169 391.68V398H430.169V384H431.169V386.32C431.989 384.78 433.529 383.78 435.469 383.78ZM435.409 393.26C437.789 393.26 439.649 391.38 439.649 389C439.649 386.62 437.789 384.74 435.409 384.74C433.029 384.74 431.169 386.62 431.169 389C431.169 391.38 433.029 393.26 435.409 393.26ZM444.06 385.96C444.74 384.38 446.04 383.86 447.4 383.86V384.82C445.68 384.82 444.06 385.88 444.06 388.44V394H443.06V384H444.06V385.96ZM453.321 383.78C456.361 383.78 458.261 386.3 458.261 389.04C458.261 389.2 458.241 389.36 458.241 389.52H449.181C449.421 391.78 451.141 393.26 453.421 393.26C455.061 393.26 456.301 392.5 456.881 391.44L457.761 391.96C456.941 393.32 455.381 394.22 453.401 394.22C450.321 394.22 448.141 392.02 448.141 389C448.141 386.06 450.261 383.78 453.321 383.78ZM453.321 384.74C451.041 384.74 449.381 386.32 449.181 388.54H457.221C457.001 386.1 455.281 384.74 453.321 384.74ZM465.026 380.74C462.986 380.58 462.046 381.52 462.046 383.46V384H465.026V384.98H462.046V394H461.026V384.98H459.306V384H461.026V383.46C461.026 381 462.406 379.58 465.026 379.78V380.74ZM470.411 383.78C473.451 383.78 475.351 386.3 475.351 389.04C475.351 389.2 475.331 389.36 475.331 389.52H466.271C466.511 391.78 468.231 393.26 470.511 393.26C472.151 393.26 473.391 392.5 473.971 391.44L474.851 391.96C474.031 393.32 472.471 394.22 470.491 394.22C467.411 394.22 465.231 392.02 465.231 389C465.231 386.06 467.351 383.78 470.411 383.78ZM470.411 384.74C468.131 384.74 466.471 386.32 466.271 388.54H474.311C474.091 386.1 472.371 384.74 470.411 384.74ZM478.688 385.96C479.368 384.38 480.668 383.86 482.028 383.86V384.82C480.308 384.82 478.688 385.88 478.688 388.44V394H477.688V384H478.688V385.96ZM485.056 385.96C485.736 384.38 487.036 383.86 488.396 383.86V384.82C486.676 384.82 485.056 385.88 485.056 388.44V394H484.056V384H485.056V385.96ZM494.317 383.78C497.357 383.78 499.257 386.3 499.257 389.04C499.257 389.2 499.237 389.36 499.237 389.52H490.177C490.417 391.78 492.137 393.26 494.417 393.26C496.057 393.26 497.297 392.5 497.877 391.44L498.757 391.96C497.937 393.32 496.377 394.22 494.397 394.22C491.317 394.22 489.137 392.02 489.137 389C489.137 386.06 491.257 383.78 494.317 383.78ZM494.317 384.74C492.037 384.74 490.377 386.32 490.177 388.54H498.217C497.997 386.1 496.277 384.74 494.317 384.74ZM510.415 380H511.415V394H510.415V391.68C509.595 393.22 508.055 394.22 506.115 394.22C503.255 394.22 500.935 391.96 500.935 389C500.935 386.04 503.255 383.78 506.115 383.78C508.055 383.78 509.595 384.78 510.415 386.32V380ZM506.175 393.26C508.555 393.26 510.415 391.38 510.415 389C510.415 386.62 508.555 384.74 506.175 384.74C503.795 384.74 501.935 386.62 501.935 389C501.935 391.38 503.795 393.26 506.175 393.26ZM519.817 394V379.4H520.817V394H519.817ZM524.399 381.58C523.959 381.58 523.599 381.22 523.599 380.78C523.599 380.36 523.959 380 524.399 380C524.839 380 525.199 380.36 525.199 380.78C525.199 381.22 524.839 381.58 524.399 381.58ZM523.899 394V384H524.899V394H523.899ZM532.701 380.74C530.661 380.58 529.721 381.52 529.721 383.46V384H532.701V384.98H529.721V394H528.701V384.98H526.981V384H528.701V383.46C528.701 381 530.081 379.58 532.701 379.78V380.74ZM538.087 383.78C541.127 383.78 543.027 386.3 543.027 389.04C543.027 389.2 543.007 389.36 543.007 389.52H533.947C534.187 391.78 535.907 393.26 538.187 393.26C539.827 393.26 541.067 392.5 541.647 391.44L542.527 391.96C541.707 393.32 540.147 394.22 538.167 394.22C535.087 394.22 532.907 392.02 532.907 389C532.907 386.06 535.027 383.78 538.087 383.78ZM538.087 384.74C535.807 384.74 534.147 386.32 533.947 388.54H541.987C541.767 386.1 540.047 384.74 538.087 384.74ZM545.654 386.62C545.654 389.3 551.714 387.72 551.714 391.38C551.714 393.02 550.274 394.22 548.134 394.22C546.134 394.22 544.814 393.28 544.334 392L545.194 391.5C545.554 392.58 546.634 393.26 548.134 393.26C549.534 393.26 550.714 392.64 550.714 391.38C550.714 388.66 544.654 390.22 544.654 386.62C544.654 385.04 546.014 383.78 548.054 383.78C549.674 383.78 550.914 384.56 551.454 385.78L550.614 386.26C550.194 385.22 549.154 384.74 548.054 384.74C546.754 384.74 545.654 385.42 545.654 386.62ZM558.863 384.98H555.883V391.48C555.883 393.24 556.823 393.28 558.863 393.1V394C556.243 394.4 554.863 393.76 554.863 391.48V384.98H552.663V384H554.863V381.5L555.883 381.2V384H558.863V384.98ZM568.778 384H569.858L565.538 394.92C564.778 396.84 563.298 398.14 561.578 398V397.06C562.918 397.18 563.938 396.18 564.558 394.72L564.778 394.18L560.178 384H561.258L565.298 392.9L568.778 384ZM571.653 394V379.4H572.653V394H571.653ZM580.235 383.78C583.275 383.78 585.175 386.3 585.175 389.04C585.175 389.2 585.155 389.36 585.155 389.52H576.095C576.335 391.78 578.055 393.26 580.335 393.26C581.975 393.26 583.215 392.5 583.795 391.44L584.675 391.96C583.855 393.32 582.295 394.22 580.315 394.22C577.235 394.22 575.055 392.02 575.055 389C575.055 386.06 577.175 383.78 580.235 383.78ZM580.235 384.74C577.955 384.74 576.295 386.32 576.095 388.54H584.135C583.915 386.1 582.195 384.74 580.235 384.74ZM597.965 384.98H594.985V391.48C594.985 393.24 595.925 393.28 597.965 393.1V394C595.345 394.4 593.965 393.76 593.965 391.48V384.98H591.765V384H593.965V381.5L594.985 381.2V384H597.965V384.98ZM601.364 385.96C602.044 384.38 603.344 383.86 604.704 383.86V384.82C602.984 384.82 601.364 385.88 601.364 388.44V394H600.364V384H601.364V385.96ZM614.926 384H615.946V394H614.926V391.74C614.086 393.24 612.546 394.22 610.626 394.22C607.786 394.22 605.446 391.96 605.446 389C605.446 386.04 607.786 383.78 610.626 383.78C612.546 383.78 614.086 384.76 614.926 386.26V384ZM610.706 393.26C613.086 393.26 614.926 391.38 614.926 389C614.926 386.62 613.086 384.74 610.706 384.74C608.326 384.74 606.466 386.62 606.466 389C606.466 391.38 608.326 393.26 610.706 393.26ZM623.597 394.22C620.577 394.22 618.337 391.96 618.337 389C618.337 386.04 620.577 383.78 623.597 383.78C625.557 383.78 627.237 384.78 627.957 386.34L627.137 386.82C626.557 385.56 625.197 384.74 623.597 384.74C621.177 384.74 619.357 386.62 619.357 389C619.357 391.38 621.177 393.26 623.597 393.26C625.217 393.26 626.537 392.42 627.197 391.18L628.037 391.68C627.237 393.22 625.557 394.22 623.597 394.22ZM637.888 394H636.528L631.228 389.08V394H630.228V380H631.228V388.54L636.288 384H637.688L632.308 388.8L637.888 394ZM643.075 394L639.015 380H640.135L643.755 392.58L647.655 380H648.915L652.835 392.58L656.435 380H657.555L653.495 394H652.215L648.295 381.38L644.355 394H643.075ZM663.067 383.78C666.107 383.78 668.007 386.3 668.007 389.04C668.007 389.2 667.987 389.36 667.987 389.52H658.927C659.167 391.78 660.887 393.26 663.167 393.26C664.807 393.26 666.047 392.5 666.627 391.44L667.507 391.96C666.687 393.32 665.127 394.22 663.147 394.22C660.067 394.22 657.887 392.02 657.887 389C657.887 386.06 660.007 383.78 663.067 383.78ZM663.067 384.74C660.787 384.74 659.127 386.32 658.927 388.54H666.967C666.747 386.1 665.027 384.74 663.067 384.74ZM85.84 413.78C88.7 413.78 91.02 416.04 91.02 419C91.02 421.96 88.7 424.22 85.84 424.22C83.9 424.22 82.36 423.22 81.54 421.68V428H80.54V414H81.54V416.32C82.36 414.78 83.9 413.78 85.84 413.78ZM85.78 423.26C88.16 423.26 90.02 421.38 90.02 419C90.02 416.62 88.16 414.74 85.78 414.74C83.4 414.74 81.54 416.62 81.54 419C81.54 421.38 83.4 423.26 85.78 423.26ZM94.4306 415.96C95.1106 414.38 96.4106 413.86 97.7706 413.86V414.82C96.0506 414.82 94.4306 415.88 94.4306 418.44V424H93.4306V414H94.4306V415.96ZM103.772 424.22C100.852 424.22 98.5123 421.96 98.5123 419C98.5123 416.04 100.852 413.78 103.772 413.78C106.672 413.78 109.012 416.04 109.012 419C109.012 421.96 106.672 424.22 103.772 424.22ZM103.772 423.26C106.152 423.26 107.992 421.38 107.992 419C107.992 416.62 106.152 414.74 103.772 414.74C101.392 414.74 99.5323 416.62 99.5323 419C99.5323 421.38 101.392 423.26 103.772 423.26ZM118.368 414H119.428L115.208 424H113.988L109.748 414H110.828L114.588 422.96L118.368 414ZM121.743 411.58C121.303 411.58 120.943 411.22 120.943 410.78C120.943 410.36 121.303 410 121.743 410C122.183 410 122.543 410.36 122.543 410.78C122.543 411.22 122.183 411.58 121.743 411.58ZM121.243 424V414H122.243V424H121.243ZM134.145 410H135.145V424H134.145V421.68C133.325 423.22 131.785 424.22 129.845 424.22C126.985 424.22 124.665 421.96 124.665 419C124.665 416.04 126.985 413.78 129.845 413.78C131.785 413.78 133.325 414.78 134.145 416.32V410ZM129.905 423.26C132.285 423.26 134.145 421.38 134.145 419C134.145 416.62 132.285 414.74 129.905 414.74C127.525 414.74 125.665 416.62 125.665 419C125.665 421.38 127.525 423.26 129.905 423.26ZM142.716 413.78C145.756 413.78 147.656 416.3 147.656 419.04C147.656 419.2 147.636 419.36 147.636 419.52H138.576C138.816 421.78 140.536 423.26 142.816 423.26C144.456 423.26 145.696 422.5 146.276 421.44L147.156 421.96C146.336 423.32 144.776 424.22 142.796 424.22C139.716 424.22 137.536 422.02 137.536 419C137.536 416.06 139.656 413.78 142.716 413.78ZM142.716 414.74C140.436 414.74 138.776 416.32 138.576 418.54H146.616C146.396 416.1 144.676 414.74 142.716 414.74ZM162.665 414H163.725L159.505 424H158.285L154.045 414H155.125L158.885 422.96L162.665 414ZM173.949 414H174.969V424H173.949V421.74C173.109 423.24 171.569 424.22 169.649 424.22C166.809 424.22 164.469 421.96 164.469 419C164.469 416.04 166.809 413.78 169.649 413.78C171.569 413.78 173.109 414.76 173.949 416.26V414ZM169.729 423.26C172.109 423.26 173.949 421.38 173.949 419C173.949 416.62 172.109 414.74 169.729 414.74C167.349 414.74 165.489 416.62 165.489 419C165.489 421.38 167.349 423.26 169.729 423.26ZM179.04 415.96C179.72 414.38 181.02 413.86 182.38 413.86V414.82C180.66 414.82 179.04 415.88 179.04 418.44V424H178.04V414H179.04V415.96ZM184.907 411.58C184.467 411.58 184.107 411.22 184.107 410.78C184.107 410.36 184.467 410 184.907 410C185.347 410 185.707 410.36 185.707 410.78C185.707 411.22 185.347 411.58 184.907 411.58ZM184.407 424V414H185.407V424H184.407ZM193.069 424.22C190.149 424.22 187.809 421.96 187.809 419C187.809 416.04 190.149 413.78 193.069 413.78C195.969 413.78 198.309 416.04 198.309 419C198.309 421.96 195.969 424.22 193.069 424.22ZM193.069 423.26C195.449 423.26 197.289 421.38 197.289 419C197.289 416.62 195.449 414.74 193.069 414.74C190.689 414.74 188.829 416.62 188.829 419C188.829 421.38 190.689 423.26 193.069 423.26ZM207.916 414H208.916V424H207.916V422.1C207.156 423.58 205.876 424.22 204.336 424.22C201.956 424.22 200.456 422.64 200.456 420.22V414H201.476V420.22C201.476 422.06 202.536 423.26 204.416 423.26C206.376 423.26 207.916 421.98 207.916 419.28V414ZM212.685 416.62C212.685 419.3 218.745 417.72 218.745 421.38C218.745 423.02 217.305 424.22 215.165 424.22C213.165 424.22 211.845 423.28 211.365 422L212.225 421.5C212.585 422.58 213.665 423.26 215.165 423.26C216.565 423.26 217.745 422.64 217.745 421.38C217.745 418.66 211.685 420.22 211.685 416.62C211.685 415.04 213.045 413.78 215.085 413.78C216.705 413.78 217.945 414.56 218.485 415.78L217.645 416.26C217.225 415.22 216.185 414.74 215.085 414.74C213.785 414.74 212.685 415.42 212.685 416.62ZM234.157 424H232.797L227.497 419.08V424H226.497V410H227.497V418.54L232.557 414H233.957L228.577 418.8L234.157 424ZM236.665 411.58C236.225 411.58 235.865 411.22 235.865 410.78C235.865 410.36 236.225 410 236.665 410C237.105 410 237.465 410.36 237.465 410.78C237.465 411.22 237.105 411.58 236.665 411.58ZM236.165 424V414H237.165V424H236.165ZM244.827 413.78C247.207 413.78 248.707 415.36 248.707 417.78V424H247.687V417.78C247.687 415.94 246.627 414.74 244.747 414.74C242.787 414.74 241.247 416.02 241.247 418.72V424H240.247V414H241.247V415.9C242.007 414.42 243.287 413.78 244.827 413.78ZM260.356 410H261.356V424H260.356V421.68C259.536 423.22 257.996 424.22 256.056 424.22C253.196 424.22 250.876 421.96 250.876 419C250.876 416.04 253.196 413.78 256.056 413.78C257.996 413.78 259.536 414.78 260.356 416.32V410ZM256.116 423.26C258.496 423.26 260.356 421.38 260.356 419C260.356 416.62 258.496 414.74 256.116 414.74C253.736 414.74 251.876 416.62 251.876 419C251.876 421.38 253.736 423.26 256.116 423.26ZM265.107 416.62C265.107 419.3 271.167 417.72 271.167 421.38C271.167 423.02 269.727 424.22 267.587 424.22C265.587 424.22 264.267 423.28 263.787 422L264.647 421.5C265.007 422.58 266.087 423.26 267.587 423.26C268.987 423.26 270.167 422.64 270.167 421.38C270.167 418.66 264.107 420.22 264.107 416.62C264.107 415.04 265.467 413.78 267.507 413.78C269.127 413.78 270.367 414.56 270.907 415.78L270.067 416.26C269.647 415.22 268.607 414.74 267.507 414.74C266.207 414.74 265.107 415.42 265.107 416.62ZM283.499 424.22C280.579 424.22 278.239 421.96 278.239 419C278.239 416.04 280.579 413.78 283.499 413.78C286.399 413.78 288.739 416.04 288.739 419C288.739 421.96 286.399 424.22 283.499 424.22ZM283.499 423.26C285.879 423.26 287.719 421.38 287.719 419C287.719 416.62 285.879 414.74 283.499 414.74C281.119 414.74 279.259 416.62 279.259 419C279.259 421.38 281.119 423.26 283.499 423.26ZM295.475 410.74C293.435 410.58 292.495 411.52 292.495 413.46V414H295.475V414.98H292.495V424H291.475V414.98H289.755V414H291.475V413.46C291.475 411 292.855 409.58 295.475 409.78V410.74ZM306.936 413.78C309.316 413.78 310.816 415.36 310.816 417.78V424H309.796V417.78C309.796 415.94 308.736 414.74 306.856 414.74C304.896 414.74 303.356 416.02 303.356 418.72V424H302.356V410H303.356V415.9C304.116 414.42 305.396 413.78 306.936 413.78ZM314.145 411.58C313.705 411.58 313.345 411.22 313.345 410.78C313.345 410.36 313.705 410 314.145 410C314.585 410 314.945 410.36 314.945 410.78C314.945 411.22 314.585 411.58 314.145 411.58ZM313.645 424V414H314.645V424H313.645ZM326.608 414H327.608V423.52C327.608 426.52 325.388 428.22 322.628 428.22C320.288 428.22 318.628 427.28 317.908 425.82L318.788 425.32C319.308 426.38 320.428 427.26 322.628 427.26C325.128 427.26 326.608 425.8 326.608 423.52V421.68C325.788 423.22 324.248 424.22 322.308 424.22C319.448 424.22 317.128 421.96 317.128 419C317.128 416.04 319.448 413.78 322.308 413.78C324.248 413.78 325.788 414.78 326.608 416.32V414ZM322.368 423.26C324.748 423.26 326.608 421.38 326.608 419C326.608 416.62 324.748 414.74 322.368 414.74C319.988 414.74 318.128 416.62 318.128 419C318.128 421.38 319.988 423.26 322.368 423.26ZM335.276 413.78C337.656 413.78 339.156 415.36 339.156 417.78V424H338.136V417.78C338.136 415.94 337.076 414.74 335.196 414.74C333.236 414.74 331.696 416.02 331.696 418.72V424H330.696V410H331.696V415.9C332.456 414.42 333.736 413.78 335.276 413.78ZM342.185 418.3V417.34H349.385V418.3H342.185ZM357.149 413.78C360.189 413.78 362.089 416.3 362.089 419.04C362.089 419.2 362.069 419.36 362.069 419.52H353.009C353.249 421.78 354.969 423.26 357.249 423.26C358.889 423.26 360.129 422.5 360.709 421.44L361.589 421.96C360.769 423.32 359.209 424.22 357.229 424.22C354.149 424.22 351.969 422.02 351.969 419C351.969 416.06 354.089 413.78 357.149 413.78ZM357.149 414.74C354.869 414.74 353.209 416.32 353.009 418.54H361.049C360.829 416.1 359.109 414.74 357.149 414.74ZM369.007 413.78C371.387 413.78 372.887 415.36 372.887 417.78V424H371.867V417.78C371.867 415.94 370.807 414.74 368.927 414.74C366.967 414.74 365.427 416.02 365.427 418.72V424H364.427V414H365.427V415.9C366.187 414.42 367.467 413.78 369.007 413.78ZM384.536 410H385.536V424H384.536V421.68C383.716 423.22 382.176 424.22 380.236 424.22C377.376 424.22 375.056 421.96 375.056 419C375.056 416.04 377.376 413.78 380.236 413.78C382.176 413.78 383.716 414.78 384.536 416.32V410ZM380.296 423.26C382.676 423.26 384.536 421.38 384.536 419C384.536 416.62 382.676 414.74 380.296 414.74C377.916 414.74 376.056 416.62 376.056 419C376.056 421.38 377.916 423.26 380.296 423.26ZM398.658 410.74C396.618 410.58 395.678 411.52 395.678 413.46V414H398.658V414.98H395.678V424H394.658V414.98H392.938V414H394.658V413.46C394.658 411 396.038 409.58 398.658 409.78V410.74ZM404.124 424.22C401.204 424.22 398.864 421.96 398.864 419C398.864 416.04 401.204 413.78 404.124 413.78C407.024 413.78 409.364 416.04 409.364 419C409.364 421.96 407.024 424.22 404.124 424.22ZM404.124 423.26C406.504 423.26 408.344 421.38 408.344 419C408.344 416.62 406.504 414.74 404.124 414.74C401.744 414.74 399.884 416.62 399.884 419C399.884 421.38 401.744 423.26 404.124 423.26ZM416.35 424.22C413.43 424.22 411.09 421.96 411.09 419C411.09 416.04 413.43 413.78 416.35 413.78C419.25 413.78 421.59 416.04 421.59 419C421.59 421.96 419.25 424.22 416.35 424.22ZM416.35 423.26C418.73 423.26 420.57 421.38 420.57 419C420.57 416.62 418.73 414.74 416.35 414.74C413.97 414.74 412.11 416.62 412.11 419C412.11 421.38 413.97 423.26 416.35 423.26ZM432.817 410H433.817V424H432.817V421.68C431.997 423.22 430.457 424.22 428.517 424.22C425.657 424.22 423.337 421.96 423.337 419C423.337 416.04 425.657 413.78 428.517 413.78C430.457 413.78 431.997 414.78 432.817 416.32V410ZM428.577 423.26C430.957 423.26 432.817 421.38 432.817 419C432.817 416.62 430.957 414.74 428.577 414.74C426.197 414.74 424.337 416.62 424.337 419C424.337 421.38 426.197 423.26 428.577 423.26ZM451.02 414H452.04V424H451.02V421.74C450.18 423.24 448.64 424.22 446.72 424.22C443.88 424.22 441.54 421.96 441.54 419C441.54 416.04 443.88 413.78 446.72 413.78C448.64 413.78 450.18 414.76 451.02 416.26V414ZM446.8 423.26C449.18 423.26 451.02 421.38 451.02 419C451.02 416.62 449.18 414.74 446.8 414.74C444.42 414.74 442.56 416.62 442.56 419C442.56 421.38 444.42 423.26 446.8 423.26ZM459.69 413.78C462.07 413.78 463.57 415.36 463.57 417.78V424H462.55V417.78C462.55 415.94 461.49 414.74 459.61 414.74C457.65 414.74 456.11 416.02 456.11 418.72V424H455.11V414H456.11V415.9C456.87 414.42 458.15 413.78 459.69 413.78ZM475.219 410H476.219V424H475.219V421.68C474.399 423.22 472.859 424.22 470.919 424.22C468.059 424.22 465.739 421.96 465.739 419C465.739 416.04 468.059 413.78 470.919 413.78C472.859 413.78 474.399 414.78 475.219 416.32V410ZM470.979 423.26C473.359 423.26 475.219 421.38 475.219 419C475.219 416.62 473.359 414.74 470.979 414.74C468.599 414.74 466.739 416.62 466.739 419C466.739 421.38 468.599 423.26 470.979 423.26ZM489.922 413.78C492.782 413.78 495.102 416.04 495.102 419C495.102 421.96 492.782 424.22 489.922 424.22C487.982 424.22 486.442 423.22 485.622 421.68V424H484.622V410H485.622V416.32C486.442 414.78 487.982 413.78 489.922 413.78ZM489.862 423.26C492.242 423.26 494.102 421.38 494.102 419C494.102 416.62 492.242 414.74 489.862 414.74C487.482 414.74 485.622 416.62 485.622 419C485.622 421.38 487.482 423.26 489.862 423.26ZM502.013 413.78C505.053 413.78 506.953 416.3 506.953 419.04C506.953 419.2 506.933 419.36 506.933 419.52H497.873C498.113 421.78 499.833 423.26 502.113 423.26C503.753 423.26 504.993 422.5 505.573 421.44L506.453 421.96C505.633 423.32 504.073 424.22 502.093 424.22C499.013 424.22 496.833 422.02 496.833 419C496.833 416.06 498.953 413.78 502.013 413.78ZM502.013 414.74C499.733 414.74 498.073 416.32 497.873 418.54H505.913C505.693 416.1 503.973 414.74 502.013 414.74ZM516.239 414H517.299L513.079 424H511.859L507.619 414H508.699L512.459 422.96L516.239 414ZM523.224 413.78C526.264 413.78 528.164 416.3 528.164 419.04C528.164 419.2 528.144 419.36 528.144 419.52H519.084C519.324 421.78 521.044 423.26 523.324 423.26C524.964 423.26 526.204 422.5 526.784 421.44L527.664 421.96C526.844 423.32 525.284 424.22 523.304 424.22C520.224 424.22 518.044 422.02 518.044 419C518.044 416.06 520.164 413.78 523.224 413.78ZM523.224 414.74C520.944 414.74 519.284 416.32 519.084 418.54H527.124C526.904 416.1 525.184 414.74 523.224 414.74ZM531.501 415.96C532.181 414.38 533.481 413.86 534.841 413.86V414.82C533.121 414.82 531.501 415.88 531.501 418.44V424H530.501V414H531.501V415.96ZM545.063 414H546.083V424H545.063V421.74C544.223 423.24 542.683 424.22 540.763 424.22C537.923 424.22 535.583 421.96 535.583 419C535.583 416.04 537.923 413.78 540.763 413.78C542.683 413.78 544.223 414.76 545.063 416.26V414ZM540.843 423.26C543.223 423.26 545.063 421.38 545.063 419C545.063 416.62 543.223 414.74 540.843 414.74C538.463 414.74 536.603 416.62 536.603 419C536.603 421.38 538.463 423.26 540.843 423.26ZM558.033 414H559.033V423.52C559.033 426.52 556.813 428.22 554.053 428.22C551.713 428.22 550.053 427.28 549.333 425.82L550.213 425.32C550.733 426.38 551.853 427.26 554.053 427.26C556.553 427.26 558.033 425.8 558.033 423.52V421.68C557.213 423.22 555.673 424.22 553.733 424.22C550.873 424.22 548.553 421.96 548.553 419C548.553 416.04 550.873 413.78 553.733 413.78C555.673 413.78 557.213 414.78 558.033 416.32V414ZM553.793 423.26C556.173 423.26 558.033 421.38 558.033 419C558.033 416.62 556.173 414.74 553.793 414.74C551.413 414.74 549.553 416.62 549.553 419C549.553 421.38 551.413 423.26 553.793 423.26ZM566.622 413.78C569.662 413.78 571.562 416.3 571.562 419.04C571.562 419.2 571.542 419.36 571.542 419.52H562.482C562.722 421.78 564.442 423.26 566.722 423.26C568.362 423.26 569.602 422.5 570.182 421.44L571.062 421.96C570.242 423.32 568.682 424.22 566.702 424.22C563.622 424.22 561.442 422.02 561.442 419C561.442 416.06 563.562 413.78 566.622 413.78ZM566.622 414.74C564.342 414.74 562.682 416.32 562.482 418.54H570.522C570.302 416.1 568.582 414.74 566.622 414.74ZM574.189 416.62C574.189 419.3 580.249 417.72 580.249 421.38C580.249 423.02 578.809 424.22 576.669 424.22C574.669 424.22 573.349 423.28 572.869 422L573.729 421.5C574.089 422.58 575.169 423.26 576.669 423.26C578.069 423.26 579.249 422.64 579.249 421.38C579.249 418.66 573.189 420.22 573.189 416.62C573.189 415.04 574.549 413.78 576.589 413.78C578.209 413.78 579.449 414.56 579.989 415.78L579.149 416.26C578.729 415.22 577.689 414.74 576.589 414.74C575.289 414.74 574.189 415.42 574.189 416.62ZM600.141 414H601.201L598.041 424H596.941L594.161 415.48L591.381 424H590.281L587.121 414H588.181L590.841 422.7L593.641 414H594.681L597.481 422.7L600.141 414ZM603.892 411.58C603.452 411.58 603.092 411.22 603.092 410.78C603.092 410.36 603.452 410 603.892 410C604.332 410 604.692 410.36 604.692 410.78C604.692 411.22 604.332 411.58 603.892 411.58ZM603.392 424V414H604.392V424H603.392ZM612.594 414.98H609.614V421.48C609.614 423.24 610.554 423.28 612.594 423.1V424C609.974 424.4 608.594 423.76 608.594 421.48V414.98H606.394V414H608.594V411.5L609.614 411.2V414H612.594V414.98ZM619.573 413.78C621.953 413.78 623.453 415.36 623.453 417.78V424H622.433V417.78C622.433 415.94 621.373 414.74 619.493 414.74C617.533 414.74 615.993 416.02 615.993 418.72V424H614.993V410H615.993V415.9C616.753 414.42 618.033 413.78 619.573 413.78ZM636.194 424.22C633.274 424.22 630.934 421.96 630.934 419C630.934 416.04 633.274 413.78 636.194 413.78C639.094 413.78 641.434 416.04 641.434 419C641.434 421.96 639.094 424.22 636.194 424.22ZM636.194 423.26C638.574 423.26 640.414 421.38 640.414 419C640.414 416.62 638.574 414.74 636.194 414.74C633.814 414.74 631.954 416.62 631.954 419C631.954 421.38 633.814 423.26 636.194 423.26ZM648.765 414.98H645.785V421.48C645.785 423.24 646.725 423.28 648.765 423.1V424C646.145 424.4 644.765 423.76 644.765 421.48V414.98H642.565V414H644.765V411.5L645.785 411.2V414H648.765V414.98ZM655.745 413.78C658.125 413.78 659.625 415.36 659.625 417.78V424H658.605V417.78C658.605 415.94 657.545 414.74 655.665 414.74C653.705 414.74 652.165 416.02 652.165 418.72V424H651.165V410H652.165V415.9C652.925 414.42 654.205 413.78 655.745 413.78ZM666.954 413.78C669.994 413.78 671.894 416.3 671.894 419.04C671.894 419.2 671.874 419.36 671.874 419.52H662.814C663.054 421.78 664.774 423.26 667.054 423.26C668.694 423.26 669.934 422.5 670.514 421.44L671.394 421.96C670.574 423.32 669.014 424.22 667.034 424.22C663.954 424.22 661.774 422.02 661.774 419C661.774 416.06 663.894 413.78 666.954 413.78ZM666.954 414.74C664.674 414.74 663.014 416.32 662.814 418.54H670.854C670.634 416.1 668.914 414.74 666.954 414.74ZM675.231 415.96C675.911 414.38 677.211 413.86 678.571 413.86V414.82C676.851 414.82 675.231 415.88 675.231 418.44V424H674.231V414H675.231V415.96ZM85.12 443.78C87.5 443.78 89 445.36 89 447.78V454H87.98V447.78C87.98 445.94 86.92 444.74 85.04 444.74C83.08 444.74 81.54 446.02 81.54 448.72V454H80.54V440H81.54V445.9C82.3 444.42 83.58 443.78 85.12 443.78ZM96.3291 443.78C99.3691 443.78 101.269 446.3 101.269 449.04C101.269 449.2 101.249 449.36 101.249 449.52H92.1891C92.4291 451.78 94.1491 453.26 96.4291 453.26C98.0691 453.26 99.3091 452.5 99.8891 451.44L100.769 451.96C99.9491 453.32 98.3891 454.22 96.4091 454.22C93.3291 454.22 91.1491 452.02 91.1491 449C91.1491 446.06 93.2691 443.78 96.3291 443.78ZM96.3291 444.74C94.0491 444.74 92.3891 446.32 92.1891 448.54H100.229C100.009 446.1 98.2891 444.74 96.3291 444.74ZM112.406 444H113.426V454H112.406V451.74C111.566 453.24 110.026 454.22 108.106 454.22C105.266 454.22 102.926 451.96 102.926 449C102.926 446.04 105.266 443.78 108.106 443.78C110.026 443.78 111.566 444.76 112.406 446.26V444ZM108.186 453.26C110.566 453.26 112.406 451.38 112.406 449C112.406 446.62 110.566 444.74 108.186 444.74C105.806 444.74 103.946 446.62 103.946 449C103.946 451.38 105.806 453.26 108.186 453.26ZM116.497 454V439.4H117.497V454H116.497ZM125.699 444.98H122.719V451.48C122.719 453.24 123.659 453.28 125.699 453.1V454C123.079 454.4 121.699 453.76 121.699 451.48V444.98H119.499V444H121.699V441.5L122.719 441.2V444H125.699V444.98ZM132.679 443.78C135.059 443.78 136.559 445.36 136.559 447.78V454H135.539V447.78C135.539 445.94 134.479 444.74 132.599 444.74C130.639 444.74 129.099 446.02 129.099 448.72V454H128.099V440H129.099V445.9C129.859 444.42 131.139 443.78 132.679 443.78ZM146.512 444H147.592L143.272 454.92C142.512 456.84 141.032 458.14 139.312 458V457.06C140.652 457.18 141.672 456.18 142.292 454.72L142.512 454.18L137.912 444H138.992L143.032 452.9L146.512 444ZM159.3 454.22C156.38 454.22 154.04 451.96 154.04 449C154.04 446.04 156.38 443.78 159.3 443.78C162.2 443.78 164.54 446.04 164.54 449C164.54 451.96 162.2 454.22 159.3 454.22ZM159.3 453.26C161.68 453.26 163.52 451.38 163.52 449C163.52 446.62 161.68 444.74 159.3 444.74C156.92 444.74 155.06 446.62 155.06 449C155.06 451.38 156.92 453.26 159.3 453.26ZM172.246 443.78C175.106 443.78 177.426 446.04 177.426 449C177.426 451.96 175.106 454.22 172.246 454.22C170.306 454.22 168.766 453.22 167.946 451.68V458H166.946V444H167.946V446.32C168.766 444.78 170.306 443.78 172.246 443.78ZM172.186 453.26C174.566 453.26 176.426 451.38 176.426 449C176.426 446.62 174.566 444.74 172.186 444.74C169.806 444.74 167.946 446.62 167.946 449C167.946 451.38 169.806 453.26 172.186 453.26ZM184.762 444.98H181.782V451.48C181.782 453.24 182.722 453.28 184.762 453.1V454C182.142 454.4 180.762 453.76 180.762 451.48V444.98H178.562V444H180.762V441.5L181.782 441.2V444H184.762V444.98ZM187.661 441.58C187.221 441.58 186.861 441.22 186.861 440.78C186.861 440.36 187.221 440 187.661 440C188.101 440 188.461 440.36 188.461 440.78C188.461 441.22 188.101 441.58 187.661 441.58ZM187.161 454V444H188.161V454H187.161ZM195.823 454.22C192.903 454.22 190.563 451.96 190.563 449C190.563 446.04 192.903 443.78 195.823 443.78C198.723 443.78 201.063 446.04 201.063 449C201.063 451.96 198.723 454.22 195.823 454.22ZM195.823 453.26C198.203 453.26 200.043 451.38 200.043 449C200.043 446.62 198.203 444.74 195.823 444.74C193.443 444.74 191.583 446.62 191.583 449C191.583 451.38 193.443 453.26 195.823 453.26ZM208.05 443.78C210.43 443.78 211.93 445.36 211.93 447.78V454H210.91V447.78C210.91 445.94 209.85 444.74 207.97 444.74C206.01 444.74 204.47 446.02 204.47 448.72V454H203.47V444H204.47V445.9C205.23 444.42 206.51 443.78 208.05 443.78ZM215.439 446.62C215.439 449.3 221.499 447.72 221.499 451.38C221.499 453.02 220.059 454.22 217.919 454.22C215.919 454.22 214.599 453.28 214.119 452L214.979 451.5C215.339 452.58 216.419 453.26 217.919 453.26C219.319 453.26 220.499 452.64 220.499 451.38C220.499 448.66 214.439 450.22 214.439 446.62C214.439 445.04 215.799 443.78 217.839 443.78C219.459 443.78 220.699 444.56 221.239 445.78L220.399 446.26C219.979 445.22 218.939 444.74 217.839 444.74C216.539 444.74 215.439 445.42 215.439 446.62ZM225.424 452.64L224.344 456.8H223.424L224.184 452.64H225.424ZM237.989 454.22C235.369 454.22 233.509 452.9 232.869 450.92L233.789 450.38C234.269 452.06 235.689 453.2 237.989 453.2C240.329 453.2 241.509 452 241.509 450.4C241.509 448.72 240.029 448.08 237.889 447.4C235.549 446.64 233.449 445.98 233.449 443.54C233.449 441.24 235.309 439.78 237.689 439.78C239.989 439.78 241.509 441.1 242.189 442.72L241.289 443.22C240.769 441.96 239.689 440.8 237.689 440.8C235.749 440.8 234.529 441.94 234.529 443.5C234.529 445.18 235.949 445.7 237.949 446.36C240.429 447.18 242.589 447.96 242.589 450.38C242.589 452.7 240.769 454.22 237.989 454.22ZM249.847 454.22C246.927 454.22 244.587 451.96 244.587 449C244.587 446.04 246.927 443.78 249.847 443.78C252.747 443.78 255.087 446.04 255.087 449C255.087 451.96 252.747 454.22 249.847 454.22ZM249.847 453.26C252.227 453.26 254.067 451.38 254.067 449C254.067 446.62 252.227 444.74 249.847 444.74C247.467 444.74 245.607 446.62 245.607 449C245.607 451.38 247.467 453.26 249.847 453.26ZM270.145 444H271.225L266.905 454.92C266.145 456.84 264.665 458.14 262.945 458V457.06C264.285 457.18 265.305 456.18 265.925 454.72L266.145 454.18L261.545 444H262.625L266.665 452.9L270.145 444ZM277.21 454.22C274.29 454.22 271.95 451.96 271.95 449C271.95 446.04 274.29 443.78 277.21 443.78C280.11 443.78 282.45 446.04 282.45 449C282.45 451.96 280.11 454.22 277.21 454.22ZM277.21 453.26C279.59 453.26 281.43 451.38 281.43 449C281.43 446.62 279.59 444.74 277.21 444.74C274.83 444.74 272.97 446.62 272.97 449C272.97 451.38 274.83 453.26 277.21 453.26ZM292.056 444H293.056V454H292.056V452.1C291.296 453.58 290.016 454.22 288.476 454.22C286.096 454.22 284.596 452.64 284.596 450.22V444H285.616V450.22C285.616 452.06 286.676 453.26 288.556 453.26C290.516 453.26 292.056 451.98 292.056 449.28V444ZM306.058 454.22C303.038 454.22 300.798 451.96 300.798 449C300.798 446.04 303.038 443.78 306.058 443.78C308.018 443.78 309.698 444.78 310.418 446.34L309.598 446.82C309.018 445.56 307.658 444.74 306.058 444.74C303.638 444.74 301.818 446.62 301.818 449C301.818 451.38 303.638 453.26 306.058 453.26C307.678 453.26 308.998 452.42 309.658 451.18L310.497 451.68C309.698 453.22 308.018 454.22 306.058 454.22ZM321.391 444H322.411V454H321.391V451.74C320.551 453.24 319.011 454.22 317.091 454.22C314.251 454.22 311.911 451.96 311.911 449C311.911 446.04 314.251 443.78 317.091 443.78C319.011 443.78 320.551 444.76 321.391 446.26V444ZM317.171 453.26C319.551 453.26 321.391 451.38 321.391 449C321.391 446.62 319.551 444.74 317.171 444.74C314.791 444.74 312.931 446.62 312.931 449C312.931 451.38 314.791 453.26 317.171 453.26ZM330.061 443.78C332.441 443.78 333.941 445.36 333.941 447.78V454H332.921V447.78C332.921 445.94 331.861 444.74 329.981 444.74C328.021 444.74 326.481 446.02 326.481 448.72V454H325.481V444H326.481V445.9C327.241 444.42 328.521 443.78 330.061 443.78ZM347.403 443.78C350.263 443.78 352.583 446.04 352.583 449C352.583 451.96 350.263 454.22 347.403 454.22C345.463 454.22 343.923 453.22 343.103 451.68V458H342.103V444H343.103V446.32C343.923 444.78 345.463 443.78 347.403 443.78ZM347.343 453.26C349.723 453.26 351.582 451.38 351.582 449C351.582 446.62 349.723 444.74 347.343 444.74C344.963 444.74 343.103 446.62 343.103 449C343.103 451.38 344.963 453.26 347.343 453.26ZM355.493 441.58C355.053 441.58 354.693 441.22 354.693 440.78C354.693 440.36 355.053 440 355.493 440C355.933 440 356.293 440.36 356.293 440.78C356.293 441.22 355.933 441.58 355.493 441.58ZM354.993 454V444H355.993V454H354.993ZM363.655 454.22C360.635 454.22 358.395 451.96 358.395 449C358.395 446.04 360.635 443.78 363.655 443.78C365.615 443.78 367.295 444.78 368.015 446.34L367.195 446.82C366.615 445.56 365.255 444.74 363.655 444.74C361.235 444.74 359.415 446.62 359.415 449C359.415 451.38 361.235 453.26 363.655 453.26C365.275 453.26 366.595 452.42 367.255 451.18L368.095 451.68C367.295 453.22 365.615 454.22 363.655 454.22ZM377.946 454H376.586L371.286 449.08V454H370.286V440H371.286V448.54L376.346 444H377.746L372.366 448.8L377.946 454ZM395.206 440L390.106 448.24V454H389.046V448.24L383.946 440H385.146L389.586 447.22L394.006 440H395.206ZM399.534 454.22C396.614 454.22 394.274 451.96 394.274 449C394.274 446.04 396.614 443.78 399.534 443.78C402.434 443.78 404.774 446.04 404.774 449C404.774 451.96 402.434 454.22 399.534 454.22ZM399.534 453.26C401.914 453.26 403.754 451.38 403.754 449C403.754 446.62 401.914 444.74 399.534 444.74C397.154 444.74 395.294 446.62 395.294 449C395.294 451.38 397.154 453.26 399.534 453.26ZM414.381 444H415.381V454H414.381V452.1C413.621 453.58 412.341 454.22 410.801 454.22C408.421 454.22 406.921 452.64 406.921 450.22V444H407.941V450.22C407.941 452.06 409.001 453.26 410.881 453.26C412.841 453.26 414.381 451.98 414.381 449.28V444ZM419.47 445.96C420.15 444.38 421.45 443.86 422.81 443.86V444.82C421.09 444.82 419.47 445.88 419.47 448.44V454H418.47V444H419.47V445.96ZM435.469 443.78C438.329 443.78 440.649 446.04 440.649 449C440.649 451.96 438.329 454.22 435.469 454.22C433.529 454.22 431.989 453.22 431.169 451.68V458H430.169V444H431.169V446.32C431.989 444.78 433.529 443.78 435.469 443.78ZM435.409 453.26C437.789 453.26 439.649 451.38 439.649 449C439.649 446.62 437.789 444.74 435.409 444.74C433.029 444.74 431.169 446.62 431.169 449C431.169 451.38 433.029 453.26 435.409 453.26ZM444.06 445.96C444.74 444.38 446.04 443.86 447.4 443.86V444.82C445.68 444.82 444.06 445.88 444.06 448.44V454H443.06V444H444.06V445.96ZM453.321 443.78C456.361 443.78 458.261 446.3 458.261 449.04C458.261 449.2 458.241 449.36 458.241 449.52H449.181C449.421 451.78 451.141 453.26 453.421 453.26C455.061 453.26 456.301 452.5 456.881 451.44L457.761 451.96C456.941 453.32 455.381 454.22 453.401 454.22C450.321 454.22 448.141 452.02 448.141 449C448.141 446.06 450.261 443.78 453.321 443.78ZM453.321 444.74C451.041 444.74 449.381 446.32 449.181 448.54H457.221C457.001 446.1 455.281 444.74 453.321 444.74ZM465.026 440.74C462.986 440.58 462.046 441.52 462.046 443.46V444H465.026V444.98H462.046V454H461.026V444.98H459.306V444H461.026V443.46C461.026 441 462.406 439.58 465.026 439.78V440.74ZM470.411 443.78C473.451 443.78 475.351 446.3 475.351 449.04C475.351 449.2 475.331 449.36 475.331 449.52H466.271C466.511 451.78 468.231 453.26 470.511 453.26C472.151 453.26 473.391 452.5 473.971 451.44L474.851 451.96C474.031 453.32 472.471 454.22 470.491 454.22C467.411 454.22 465.231 452.02 465.231 449C465.231 446.06 467.351 443.78 470.411 443.78ZM470.411 444.74C468.131 444.74 466.471 446.32 466.271 448.54H474.311C474.091 446.1 472.371 444.74 470.411 444.74ZM478.688 445.96C479.368 444.38 480.668 443.86 482.028 443.86V444.82C480.308 444.82 478.688 445.88 478.688 448.44V454H477.688V444H478.688V445.96ZM485.056 445.96C485.736 444.38 487.036 443.86 488.396 443.86V444.82C486.676 444.82 485.056 445.88 485.056 448.44V454H484.056V444H485.056V445.96ZM494.317 443.78C497.357 443.78 499.257 446.3 499.257 449.04C499.257 449.2 499.237 449.36 499.237 449.52H490.177C490.417 451.78 492.137 453.26 494.417 453.26C496.057 453.26 497.297 452.5 497.877 451.44L498.757 451.96C497.937 453.32 496.377 454.22 494.397 454.22C491.317 454.22 489.137 452.02 489.137 449C489.137 446.06 491.257 443.78 494.317 443.78ZM494.317 444.74C492.037 444.74 490.377 446.32 490.177 448.54H498.217C497.997 446.1 496.277 444.74 494.317 444.74ZM510.415 440H511.415V454H510.415V451.68C509.595 453.22 508.055 454.22 506.115 454.22C503.255 454.22 500.935 451.96 500.935 449C500.935 446.04 503.255 443.78 506.115 443.78C508.055 443.78 509.595 444.78 510.415 446.32V440ZM506.175 453.26C508.555 453.26 510.415 451.38 510.415 449C510.415 446.62 508.555 444.74 506.175 444.74C503.795 444.74 501.935 446.62 501.935 449C501.935 451.38 503.795 453.26 506.175 453.26ZM519.817 454V439.4H520.817V454H519.817ZM524.399 441.58C523.959 441.58 523.599 441.22 523.599 440.78C523.599 440.36 523.959 440 524.399 440C524.839 440 525.199 440.36 525.199 440.78C525.199 441.22 524.839 441.58 524.399 441.58ZM523.899 454V444H524.899V454H523.899ZM532.701 440.74C530.661 440.58 529.721 441.52 529.721 443.46V444H532.701V444.98H529.721V454H528.701V444.98H526.981V444H528.701V443.46C528.701 441 530.081 439.58 532.701 439.78V440.74ZM538.087 443.78C541.127 443.78 543.027 446.3 543.027 449.04C543.027 449.2 543.007 449.36 543.007 449.52H533.947C534.187 451.78 535.907 453.26 538.187 453.26C539.827 453.26 541.067 452.5 541.647 451.44L542.527 451.96C541.707 453.32 540.147 454.22 538.167 454.22C535.087 454.22 532.907 452.02 532.907 449C532.907 446.06 535.027 443.78 538.087 443.78ZM538.087 444.74C535.807 444.74 534.147 446.32 533.947 448.54H541.987C541.767 446.1 540.047 444.74 538.087 444.74ZM545.654 446.62C545.654 449.3 551.714 447.72 551.714 451.38C551.714 453.02 550.274 454.22 548.134 454.22C546.134 454.22 544.814 453.28 544.334 452L545.194 451.5C545.554 452.58 546.634 453.26 548.134 453.26C549.534 453.26 550.714 452.64 550.714 451.38C550.714 448.66 544.654 450.22 544.654 446.62C544.654 445.04 546.014 443.78 548.054 443.78C549.674 443.78 550.914 444.56 551.454 445.78L550.614 446.26C550.194 445.22 549.154 444.74 548.054 444.74C546.754 444.74 545.654 445.42 545.654 446.62ZM558.863 444.98H555.883V451.48C555.883 453.24 556.823 453.28 558.863 453.1V454C556.243 454.4 554.863 453.76 554.863 451.48V444.98H552.663V444H554.863V441.5L555.883 441.2V444H558.863V444.98ZM568.778 444H569.858L565.538 454.92C564.778 456.84 563.298 458.14 561.578 458V457.06C562.918 457.18 563.938 456.18 564.558 454.72L564.778 454.18L560.178 444H561.258L565.298 452.9L568.778 444ZM571.653 454V439.4H572.653V454H571.653ZM580.235 443.78C583.275 443.78 585.175 446.3 585.175 449.04C585.175 449.2 585.155 449.36 585.155 449.52H576.095C576.335 451.78 578.055 453.26 580.335 453.26C581.975 453.26 583.215 452.5 583.795 451.44L584.675 451.96C583.855 453.32 582.295 454.22 580.315 454.22C577.235 454.22 575.055 452.02 575.055 449C575.055 446.06 577.175 443.78 580.235 443.78ZM580.235 444.74C577.955 444.74 576.295 446.32 576.095 448.54H584.135C583.915 446.1 582.195 444.74 580.235 444.74ZM597.965 444.98H594.985V451.48C594.985 453.24 595.925 453.28 597.965 453.1V454C595.345 454.4 593.965 453.76 593.965 451.48V444.98H591.765V444H593.965V441.5L594.985 441.2V444H597.965V444.98ZM601.364 445.96C602.044 444.38 603.344 443.86 604.704 443.86V444.82C602.984 444.82 601.364 445.88 601.364 448.44V454H600.364V444H601.364V445.96ZM614.926 444H615.946V454H614.926V451.74C614.086 453.24 612.546 454.22 610.626 454.22C607.786 454.22 605.446 451.96 605.446 449C605.446 446.04 607.786 443.78 610.626 443.78C612.546 443.78 614.086 444.76 614.926 446.26V444ZM610.706 453.26C613.086 453.26 614.926 451.38 614.926 449C614.926 446.62 613.086 444.74 610.706 444.74C608.326 444.74 606.466 446.62 606.466 449C606.466 451.38 608.326 453.26 610.706 453.26ZM623.597 454.22C620.577 454.22 618.337 451.96 618.337 449C618.337 446.04 620.577 443.78 623.597 443.78C625.557 443.78 627.237 444.78 627.957 446.34L627.137 446.82C626.557 445.56 625.197 444.74 623.597 444.74C621.177 444.74 619.357 446.62 619.357 449C619.357 451.38 621.177 453.26 623.597 453.26C625.217 453.26 626.537 452.42 627.197 451.18L628.037 451.68C627.237 453.22 625.557 454.22 623.597 454.22ZM637.888 454H636.528L631.228 449.08V454H630.228V440H631.228V448.54L636.288 444H637.688L632.308 448.8L637.888 454Z" fill="#333333"/>
<rect x="79" y="512" width="132" height="59" rx="8" fill="#39B54A"/>
<path d="M103.752 548L99.18 535.4H101.169L104.931 545.777L108.702 535.4H110.691L106.11 548H103.752ZM111.242 539H113.114V548H111.242V539ZM112.187 537.515C111.905 537.515 111.668 537.422 111.476 537.236C111.284 537.05 111.188 536.816 111.188 536.534C111.188 536.258 111.284 536.027 111.476 535.841C111.668 535.649 111.905 535.553 112.187 535.553C112.463 535.553 112.697 535.649 112.889 535.841C113.081 536.027 113.177 536.258 113.177 536.534C113.177 536.816 113.081 537.05 112.889 537.236C112.697 537.422 112.463 537.515 112.187 537.515ZM119.913 548.234C119.085 548.234 118.329 548.021 117.645 547.595C116.967 547.169 116.424 546.599 116.016 545.885C115.614 545.165 115.413 544.37 115.413 543.5C115.413 542.84 115.53 542.225 115.764 541.655C115.998 541.079 116.319 540.575 116.727 540.143C117.141 539.705 117.621 539.363 118.167 539.117C118.713 538.871 119.295 538.748 119.913 538.748C120.603 538.748 121.236 538.892 121.812 539.18C122.388 539.462 122.88 539.855 123.288 540.359C123.696 540.857 123.996 541.433 124.188 542.087C124.38 542.735 124.437 543.425 124.359 544.157H117.42C117.498 544.571 117.648 544.946 117.87 545.282C118.098 545.612 118.386 545.873 118.734 546.065C119.088 546.257 119.481 546.356 119.913 546.362C120.369 546.362 120.783 546.248 121.155 546.02C121.533 545.792 121.842 545.477 122.082 545.075L123.981 545.516C123.621 546.314 123.078 546.968 122.352 547.478C121.626 547.982 120.813 548.234 119.913 548.234ZM117.357 542.726H122.469C122.409 542.294 122.256 541.904 122.01 541.556C121.77 541.202 121.467 540.923 121.101 540.719C120.741 540.509 120.345 540.404 119.913 540.404C119.487 540.404 119.091 540.506 118.725 540.71C118.365 540.914 118.065 541.193 117.825 541.547C117.591 541.895 117.435 542.288 117.357 542.726ZM129.889 548H128.026L125.011 539H126.847L128.971 545.318L131.077 539H132.967L135.073 545.318L137.188 539H139.024L136.018 548H134.137L132.013 541.637L129.889 548ZM144.975 548L147.414 535.4H148.926L152.157 543.887L155.37 535.4H156.882L159.33 548H157.422L155.793 539.567L152.778 547.523H151.518L148.512 539.567L146.883 548H144.975ZM164.579 548.234C163.751 548.234 162.995 548.021 162.311 547.595C161.633 547.169 161.09 546.599 160.682 545.885C160.28 545.165 160.079 544.37 160.079 543.5C160.079 542.84 160.196 542.225 160.43 541.655C160.664 541.079 160.985 540.575 161.393 540.143C161.807 539.705 162.287 539.363 162.833 539.117C163.379 538.871 163.961 538.748 164.579 538.748C165.269 538.748 165.902 538.892 166.478 539.18C167.054 539.462 167.546 539.855 167.954 540.359C168.362 540.857 168.662 541.433 168.854 542.087C169.046 542.735 169.103 543.425 169.025 544.157H162.086C162.164 544.571 162.314 544.946 162.536 545.282C162.764 545.612 163.052 545.873 163.4 546.065C163.754 546.257 164.147 546.356 164.579 546.362C165.035 546.362 165.449 546.248 165.821 546.02C166.199 545.792 166.508 545.477 166.748 545.075L168.647 545.516C168.287 546.314 167.744 546.968 167.018 547.478C166.292 547.982 165.479 548.234 164.579 548.234ZM162.023 542.726H167.135C167.075 542.294 166.922 541.904 166.676 541.556C166.436 541.202 166.133 540.923 165.767 540.719C165.407 540.509 165.011 540.404 164.579 540.404C164.153 540.404 163.757 540.506 163.391 540.71C163.031 540.914 162.731 541.193 162.491 541.547C162.257 541.895 162.101 542.288 162.023 542.726ZM178.885 543.284V548H177.013V543.32C177.013 542.81 176.905 542.348 176.689 541.934C176.479 541.514 176.188 541.181 175.816 540.935C175.45 540.683 175.033 540.557 174.565 540.557C174.097 540.557 173.686 540.683 173.332 540.935C172.984 541.181 172.711 541.514 172.513 541.934C172.321 542.348 172.225 542.81 172.225 543.32V548H170.353V539H172.225V540.215C172.537 539.759 172.915 539.402 173.359 539.144C173.803 538.88 174.304 538.748 174.862 538.748C175.672 538.748 176.374 538.955 176.968 539.369C177.568 539.783 178.036 540.332 178.372 541.016C178.708 541.7 178.879 542.456 178.885 543.284ZM180.869 543.698V539H182.741V543.662C182.741 544.172 182.846 544.637 183.056 545.057C183.272 545.471 183.563 545.804 183.929 546.056C184.301 546.302 184.724 546.425 185.198 546.425C185.66 546.425 186.065 546.302 186.413 546.056C186.767 545.804 187.04 545.471 187.232 545.057C187.43 544.637 187.529 544.172 187.529 543.662V539H189.401V548H187.529V546.776C187.217 547.226 186.839 547.583 186.395 547.847C185.951 548.111 185.45 548.243 184.892 548.243C184.088 548.243 183.383 548.039 182.777 547.631C182.177 547.217 181.712 546.665 181.382 545.975C181.052 545.285 180.881 544.526 180.869 543.698Z" fill="white"/>
<rect x="231.5" y="512.5" width="106" height="58" rx="7.5" fill="#F2F2F2"/>
<rect x="231.5" y="512.5" width="106" height="58" rx="7.5" stroke="#39B54A"/>
<path d="M256.08 548V535.4H263.505V537.272H257.952V540.314H262.641V542.186H257.952V548H256.08ZM264.289 539H266.161V548H264.289V539ZM265.234 537.515C264.952 537.515 264.715 537.422 264.523 537.236C264.331 537.05 264.235 536.816 264.235 536.534C264.235 536.258 264.331 536.027 264.523 535.841C264.715 535.649 264.952 535.553 265.234 535.553C265.51 535.553 265.744 535.649 265.936 535.841C266.128 536.027 266.224 536.258 266.224 536.534C266.224 536.816 266.128 537.05 265.936 537.236C265.744 537.422 265.51 537.515 265.234 537.515ZM277.282 543.284V548H275.41V543.32C275.41 542.81 275.302 542.348 275.086 541.934C274.876 541.514 274.585 541.181 274.213 540.935C273.847 540.683 273.43 540.557 272.962 540.557C272.494 540.557 272.083 540.683 271.729 540.935C271.381 541.181 271.108 541.514 270.91 541.934C270.718 542.348 270.622 542.81 270.622 543.32V548H268.75V539H270.622V540.215C270.934 539.759 271.312 539.402 271.756 539.144C272.2 538.88 272.701 538.748 273.259 538.748C274.069 538.748 274.771 538.955 275.365 539.369C275.965 539.783 276.433 540.332 276.769 541.016C277.105 541.7 277.276 542.456 277.282 543.284ZM285.978 534.5H287.85V548H285.978V546.677C285.684 547.145 285.3 547.523 284.826 547.811C284.352 548.093 283.797 548.234 283.161 548.234C282.507 548.234 281.895 548.111 281.325 547.865C280.755 547.619 280.251 547.28 279.813 546.848C279.381 546.41 279.042 545.906 278.796 545.336C278.55 544.766 278.427 544.154 278.427 543.5C278.427 542.846 278.55 542.234 278.796 541.664C279.042 541.088 279.381 540.584 279.813 540.152C280.251 539.714 280.755 539.372 281.325 539.126C281.895 538.88 282.507 538.757 283.161 538.757C283.797 538.757 284.352 538.901 284.826 539.189C285.3 539.471 285.684 539.843 285.978 540.305V534.5ZM283.179 546.425C283.707 546.425 284.169 546.296 284.565 546.038C284.961 545.774 285.267 545.42 285.483 544.976C285.705 544.532 285.816 544.04 285.816 543.5C285.816 542.954 285.705 542.459 285.483 542.015C285.261 541.571 284.952 541.22 284.556 540.962C284.166 540.698 283.707 540.566 283.179 540.566C282.657 540.566 282.18 540.698 281.748 540.962C281.322 541.226 280.98 541.58 280.722 542.024C280.47 542.468 280.344 542.96 280.344 543.5C280.344 544.046 280.473 544.541 280.731 544.985C280.995 545.423 281.34 545.774 281.766 546.038C282.198 546.296 282.669 546.425 283.179 546.425ZM299.316 548.234C298.308 548.234 297.429 547.988 296.679 547.496C295.935 547.004 295.356 546.344 294.942 545.516C294.534 544.682 294.33 543.758 294.33 542.744V535.4H296.202V542.744C296.202 543.404 296.322 544.01 296.562 544.562C296.808 545.108 297.162 545.546 297.624 545.876C298.092 546.2 298.656 546.362 299.316 546.362C299.994 546.362 300.564 546.2 301.026 545.876C301.488 545.546 301.836 545.108 302.07 544.562C302.31 544.01 302.43 543.404 302.43 542.744V535.4H304.302V542.744C304.302 543.506 304.185 544.22 303.951 544.886C303.717 545.546 303.381 546.128 302.943 546.632C302.505 547.136 301.98 547.529 301.368 547.811C300.756 548.093 300.072 548.234 299.316 548.234ZM309.249 548.171C308.775 548.141 308.313 548.045 307.863 547.883C307.413 547.721 307.017 547.502 306.675 547.226C306.339 546.944 306.087 546.614 305.919 546.236L307.512 545.552C307.59 545.714 307.725 545.873 307.917 546.029C308.115 546.185 308.346 546.314 308.61 546.416C308.874 546.512 309.15 546.56 309.438 546.56C309.72 546.56 309.981 546.521 310.221 546.443C310.467 546.359 310.668 546.233 310.824 546.065C310.98 545.897 311.058 545.696 311.058 545.462C311.058 545.198 310.968 544.994 310.788 544.85C310.614 544.7 310.395 544.586 310.131 544.508C309.867 544.43 309.603 544.355 309.339 544.283C308.751 544.151 308.211 543.971 307.719 543.743C307.233 543.509 306.846 543.212 306.558 542.852C306.27 542.486 306.126 542.039 306.126 541.511C306.126 540.935 306.279 540.437 306.585 540.017C306.897 539.591 307.308 539.264 307.818 539.036C308.328 538.808 308.871 538.694 309.447 538.694C310.167 538.694 310.827 538.847 311.427 539.153C312.027 539.459 312.486 539.879 312.804 540.413L311.319 541.295C311.229 541.115 311.094 540.953 310.914 540.809C310.734 540.665 310.53 540.551 310.302 540.467C310.074 540.377 309.837 540.326 309.591 540.314C309.285 540.302 309 540.338 308.736 540.422C308.478 540.5 308.271 540.626 308.115 540.8C307.959 540.974 307.881 541.196 307.881 541.466C307.881 541.73 307.974 541.928 308.16 542.06C308.346 542.186 308.58 542.288 308.862 542.366C309.15 542.444 309.444 542.531 309.744 542.627C310.278 542.795 310.779 543.002 311.247 543.248C311.715 543.488 312.093 543.785 312.381 544.139C312.669 544.493 312.807 544.925 312.795 545.435C312.795 545.999 312.624 546.494 312.282 546.92C311.946 547.346 311.508 547.67 310.968 547.892C310.428 548.114 309.855 548.207 309.249 548.171Z" fill="#262626"/>
</g>
<defs>
<filter id="filter0_d_3_2" x="0.700001" y="0" width="1612.6" height="711.3" filterUnits="userSpaceOnUse" color-interpolation-filters="sRGB">
<feFlood flood-opacity="0" result="BackgroundImageFix"/>
<feColorMatrix in="SourceAlpha" type="matrix" values="0 0 0 0 0 0 0 0 0 0 0 0 0 0 0 0 0 0 127 0" result="hardAlpha"/>
<feMorphology radius="28" operator="erode" in="SourceAlpha" result="effect1_dropShadow_3_2"/>
<feOffset dy="41"/>
<feGaussianBlur stdDeviation="17.65"/>
<feComposite in2="hardAlpha" operator="out"/>
<feColorMatrix type="matrix" values="0 0 0 0 0 0 0 0 0 0 0 0 0 0 0 0 0 0 0.05 0"/>
<feBlend mode="normal" in2="BackgroundImageFix" result="effect1_dropShadow_3_2"/>
<feBlend mode="normal" in="SourceGraphic" in2="effect1_dropShadow_3_2" result="shape"/>
</filter>
</defs>
</svg>
